<svg width="30" height="30" viewBox="0 0 30 30" fill="none" xmlns="http://www.w3.org/2000/svg">
<rect width="30" height="30" rx="5" fill="#ECFEF4"/>
<g clip-path="url(#clip0_1_909)">
<path d="M15 5C9.48566 5 5 9.48566 5 15C5 20.5143 9.48566 25 15 25C20.5143 25 25 20.5136 25 15C25 9.48645 20.5143 5 15 5ZM15 23.4508C10.3408 23.4508 6.54918 19.66 6.54918 15C6.54918 10.34 10.3408 6.54918 15 6.54918C19.6592 6.54918 23.4508 10.34 23.4508 15C23.4508 19.66 19.66 23.4508 15 23.4508Z" fill="#12B880"/>
<path d="M18.873 14.1557H15.7746V11.0573C15.7746 10.6297 15.4284 10.2827 15 10.2827C14.5716 10.2827 14.2254 10.6297 14.2254 11.0573V14.1557H11.127C10.6987 14.1557 10.3524 14.5027 10.3524 14.9303C10.3524 15.3579 10.6987 15.7049 11.127 15.7049H14.2254V18.8033C14.2254 19.2308 14.5716 19.5779 15 19.5779C15.4284 19.5779 15.7746 19.2308 15.7746 18.8033V15.7049H18.873C19.3013 15.7049 19.6476 15.3579 19.6476 14.9303C19.6476 14.5027 19.3013 14.1557 18.873 14.1557Z" fill="#12B880"/>
</g>
<defs>
<clipPath id="clip0_1_909">
<rect width="20" height="20" fill="white" transform="translate(5 5)"/>
</clipPath>
</defs>
</svg>
