<svg width="30" height="30" viewBox="0 0 30 30" fill="none" xmlns="http://www.w3.org/2000/svg">
<rect width="30" height="30" rx="5" fill="#ECFEF4"/>
<path d="M21.875 7.5H19.375V6.875C19.375 6.70924 19.3092 6.55027 19.1919 6.43306C19.0747 6.31585 18.9158 6.25 18.75 6.25C18.5842 6.25 18.4253 6.31585 18.3081 6.43306C18.1908 6.55027 18.125 6.70924 18.125 6.875V7.5H11.875V6.875C11.875 6.70924 11.8092 6.55027 11.6919 6.43306C11.5747 6.31585 11.4158 6.25 11.25 6.25C11.0842 6.25 10.9253 6.31585 10.8081 6.43306C10.6908 6.55027 10.625 6.70924 10.625 6.875V7.5H8.125C7.62772 7.5 7.15081 7.69754 6.79917 8.04917C6.44754 8.40081 6.25 8.87772 6.25 9.375V21.875C6.25 22.3723 6.44754 22.8492 6.79917 23.2008C7.15081 23.5525 7.62772 23.75 8.125 23.75H21.875C22.3723 23.75 22.8492 23.5525 23.2008 23.2008C23.5525 22.8492 23.75 22.3723 23.75 21.875V9.375C23.75 8.87772 23.5525 8.40081 23.2008 8.04917C22.8492 7.69754 22.3723 7.5 21.875 7.5ZM8.125 8.75H21.875C22.0408 8.75 22.1997 8.81585 22.3169 8.93306C22.4342 9.05027 22.5 9.20924 22.5 9.375V11.25H7.5V9.375C7.5 9.20924 7.56585 9.05027 7.68306 8.93306C7.80027 8.81585 7.95924 8.75 8.125 8.75ZM21.875 22.5H8.125C7.95924 22.5 7.80027 22.4342 7.68306 22.3169C7.56585 22.1997 7.5 22.0408 7.5 21.875V12.5H22.5V21.875C22.5 22.0408 22.4342 22.1997 22.3169 22.3169C22.1997 22.4342 22.0408 22.5 21.875 22.5Z" fill="#12B880"/>
<path d="M17.7188 14.5256L13.7813 17.9006L12.315 16.435C12.1971 16.3212 12.0392 16.2582 11.8754 16.2596C11.7115 16.261 11.5547 16.3267 11.4389 16.4426C11.323 16.5585 11.2573 16.7153 11.2558 16.8791C11.2544 17.043 11.3174 17.2009 11.4313 17.3188L13.3063 19.1938C13.4176 19.3049 13.5667 19.37 13.724 19.3761C13.8812 19.3821 14.0349 19.3286 14.1544 19.2263L18.5294 15.4763C18.5952 15.424 18.6499 15.359 18.69 15.2852C18.7302 15.2114 18.7551 15.1302 18.7631 15.0465C18.7712 14.9628 18.7623 14.8784 18.737 14.7982C18.7116 14.7181 18.6704 14.6439 18.6157 14.58C18.561 14.5162 18.4941 14.464 18.4187 14.4267C18.3434 14.3893 18.2614 14.3675 18.1775 14.3626C18.0936 14.3577 18.0095 14.3698 17.9304 14.3981C17.8512 14.4265 17.7786 14.4705 17.7169 14.5275L17.7188 14.5256Z" fill="#12B880"/>
</svg>
