<svg width="30" height="30" viewBox="0 0 30 30" fill="none" xmlns="http://www.w3.org/2000/svg">
<rect width="30" height="30" rx="5" fill="#ECFEF4"/>
<path d="M13.125 20.1562C11.3159 20.1562 9.84375 18.6841 9.84375 16.875C9.84375 16.6162 9.63379 16.4062 9.375 16.4062C9.11621 16.4062 8.90625 16.6162 8.90625 16.875C8.90625 19.2011 10.799 21.0938 13.125 21.0938C13.3838 21.0938 13.5938 20.8838 13.5938 20.625C13.5938 20.3662 13.3838 20.1562 13.125 20.1562Z" fill="#12B880"/>
<path d="M18.75 12.6563C18.4306 12.6563 18.1206 12.695 17.8214 12.7626C16.1513 9.88194 13.5696 7.28182 13.4564 7.1686C13.2753 6.98751 12.9745 6.98766 12.7936 7.16859C12.558 7.40387 7.03125 12.9758 7.03125 16.875C7.03125 20.235 9.76501 22.9688 13.125 22.9688C14.8702 22.9688 16.4945 22.2293 17.6431 20.9414C17.9965 21.0378 18.3665 21.0938 18.75 21.0938C21.076 21.0938 22.9688 19.2011 22.9688 16.875C22.9688 14.5486 21.076 12.6563 18.75 12.6563ZM13.125 22.0313C10.282 22.0313 7.96875 19.718 7.96875 16.875C7.96875 13.8733 11.9373 9.43665 13.125 8.17627C13.8597 8.95577 15.652 10.9537 16.9168 13.0813C15.5076 13.7651 14.5312 15.2063 14.5312 16.875C14.5312 18.4634 15.4145 19.8486 16.715 20.5681C15.7634 21.5036 14.4861 22.0313 13.125 22.0313ZM18.75 20.1563C16.9409 20.1563 15.4688 18.6841 15.4688 16.875C15.4688 15.0656 16.9409 13.5938 18.75 13.5938C20.5591 13.5938 22.0312 15.0656 22.0312 16.875C22.0312 18.6841 20.5591 20.1563 18.75 20.1563Z" fill="#12B880"/>
<path d="M20.0751 14.8871L19.2431 15.719C19.0891 15.6609 18.9241 15.625 18.75 15.625C17.9749 15.625 17.3438 16.2561 17.3438 17.0312C17.3438 17.8064 17.9749 18.4375 18.75 18.4375C19.5251 18.4375 20.1562 17.8064 20.1562 17.0312C20.1562 16.7738 20.0816 16.5354 19.9602 16.3276L20.7379 15.5499C20.921 15.3668 20.921 15.0702 20.7379 14.8871C20.5548 14.704 20.2582 14.704 20.0751 14.8871ZM18.75 17.5C18.4918 17.5 18.2812 17.2894 18.2812 17.0312C18.2812 16.7731 18.4918 16.5625 18.75 16.5625C19.0082 16.5625 19.2188 16.7731 19.2188 17.0312C19.2188 17.2894 19.0082 17.5 18.75 17.5Z" fill="#12B880"/>
</svg>
