<svg width="30" height="30" viewBox="0 0 30 30" fill="none" xmlns="http://www.w3.org/2000/svg">
<rect width="30" height="30" rx="5" fill="#ECFEF4"/>
<g clip-path="url(#clip0_1_830)">
<path d="M10.625 13.7501H9.37488C9.21948 13.7501 9.07044 13.8118 8.96056 13.9217C8.85067 14.0316 8.78894 14.1806 8.78894 14.336C8.78894 14.4914 8.85067 14.6404 8.96056 14.7503C9.07044 14.8602 9.21948 14.9219 9.37488 14.9219H10.625C10.7804 14.9219 10.9294 14.8602 11.0393 14.7503C11.1492 14.6404 11.2109 14.4914 11.2109 14.336C11.2109 14.1806 11.1492 14.0316 11.0393 13.9217C10.9294 13.8118 10.7804 13.7501 10.625 13.7501Z" fill="#12B880"/>
<path d="M10.625 16.2499H9.37488C9.21948 16.2499 9.07044 16.3117 8.96056 16.4216C8.85067 16.5314 8.78894 16.6805 8.78894 16.8359C8.78894 16.9913 8.85067 17.1403 8.96056 17.2502C9.07044 17.3601 9.21948 17.4218 9.37488 17.4218H10.625C10.7804 17.4218 10.9294 17.3601 11.0393 17.2502C11.1492 17.1403 11.2109 16.9913 11.2109 16.8359C11.2109 16.6805 11.1492 16.5314 11.0393 16.4216C10.9294 16.3117 10.7804 16.2499 10.625 16.2499Z" fill="#12B880"/>
<path d="M10.625 18.7501H9.37488C9.21948 18.7501 9.07044 18.8119 8.96056 18.9217C8.85067 19.0316 8.78894 19.1807 8.78894 19.3361C8.78894 19.4915 8.85067 19.6405 8.96056 19.7504C9.07044 19.8603 9.21948 19.922 9.37488 19.922H10.625C10.7804 19.922 10.9294 19.8603 11.0393 19.7504C11.1492 19.6405 11.2109 19.4915 11.2109 19.3361C11.2109 19.1807 11.1492 19.0316 11.0393 18.9217C10.9294 18.8119 10.7804 18.7501 10.625 18.7501Z" fill="#12B880"/>
<path d="M15.6251 13.7501H14.375C14.2196 13.7501 14.0705 13.8118 13.9606 13.9217C13.8508 14.0316 13.789 14.1806 13.789 14.336C13.789 14.4914 13.8508 14.6404 13.9606 14.7503C14.0705 14.8602 14.2196 14.9219 14.375 14.9219H15.6251C15.7805 14.9219 15.9295 14.8602 16.0394 14.7503C16.1493 14.6404 16.211 14.4914 16.211 14.336C16.211 14.1806 16.1493 14.0316 16.0394 13.9217C15.9295 13.8118 15.7805 13.7501 15.6251 13.7501Z" fill="#12B880"/>
<path d="M15.6251 16.2499H14.375C14.2196 16.2499 14.0705 16.3117 13.9606 16.4216C13.8508 16.5314 13.789 16.6805 13.789 16.8359C13.789 16.9913 13.8508 17.1403 13.9606 17.2502C14.0705 17.3601 14.2196 17.4218 14.375 17.4218H15.6251C15.7805 17.4218 15.9295 17.3601 16.0394 17.2502C16.1493 17.1403 16.211 16.9913 16.211 16.8359C16.211 16.6805 16.1493 16.5314 16.0394 16.4216C15.9295 16.3117 15.7805 16.2499 15.6251 16.2499Z" fill="#12B880"/>
<path d="M15.6251 18.7501H14.375C14.2196 18.7501 14.0705 18.8119 13.9606 18.9217C13.8508 19.0316 13.789 19.1807 13.789 19.3361C13.789 19.4915 13.8508 19.6405 13.9606 19.7504C14.0705 19.8603 14.2196 19.922 14.375 19.922H15.6251C15.7805 19.922 15.9295 19.8603 16.0394 19.7504C16.1493 19.6405 16.211 19.4915 16.211 19.3361C16.211 19.1807 16.1493 19.0316 16.0394 18.9217C15.9295 18.8119 15.7805 18.7501 15.6251 18.7501Z" fill="#12B880"/>
<path d="M20.6248 13.7501H19.375C19.2196 13.7501 19.0706 13.8118 18.9607 13.9217C18.8508 14.0316 18.7891 14.1806 18.7891 14.336C18.7891 14.4914 18.8508 14.6404 18.9607 14.7503C19.0706 14.8602 19.2196 14.9219 19.375 14.9219H20.6248C20.7802 14.9219 20.9293 14.8602 21.0391 14.7503C21.149 14.6404 21.2108 14.4914 21.2108 14.336C21.2108 14.1806 21.149 14.0316 21.0391 13.9217C20.9293 13.8118 20.7802 13.7501 20.6248 13.7501Z" fill="#12B880"/>
<path d="M20.6248 16.2499H19.375C19.2196 16.2499 19.0706 16.3117 18.9607 16.4216C18.8508 16.5314 18.7891 16.6805 18.7891 16.8359C18.7891 16.9913 18.8508 17.1403 18.9607 17.2502C19.0706 17.3601 19.2196 17.4218 19.375 17.4218H20.6248C20.7802 17.4218 20.9293 17.3601 21.0391 17.2502C21.149 17.1403 21.2108 16.9913 21.2108 16.8359C21.2108 16.6805 21.149 16.5314 21.0391 16.4216C20.9293 16.3117 20.7802 16.2499 20.6248 16.2499Z" fill="#12B880"/>
<path d="M20.6248 18.7501H19.375C19.2196 18.7501 19.0706 18.8119 18.9607 18.9217C18.8508 19.0316 18.7891 19.1807 18.7891 19.3361C18.7891 19.4915 18.8508 19.6405 18.9607 19.7504C19.0706 19.8603 19.2196 19.922 19.375 19.922H20.6248C20.7802 19.922 20.9293 19.8603 21.0391 19.7504C21.149 19.6405 21.2108 19.4915 21.2108 19.3361C21.2108 19.1807 21.149 19.0316 21.0391 18.9217C20.9293 18.8119 20.7802 18.7501 20.6248 18.7501Z" fill="#12B880"/>
<path d="M23.2422 6.56269H21.836V5.58593C21.836 5.43054 21.7742 5.2815 21.6643 5.17162C21.5545 5.06173 21.4054 5 21.25 5C21.0946 5 20.9456 5.06173 20.8357 5.17162C20.7258 5.2815 20.6641 5.43054 20.6641 5.58593V6.56269H15.5858V5.58593C15.5858 5.43054 15.5241 5.2815 15.4142 5.17162C15.3043 5.06173 15.1553 5 14.9999 5C14.8445 5 14.6954 5.06173 14.5855 5.17162C14.4757 5.2815 14.4139 5.43054 14.4139 5.58593V6.56269H9.33592V5.58593C9.33592 5.43054 9.27418 5.2815 9.1643 5.17162C9.05442 5.06173 8.90538 5 8.74998 5C8.59458 5 8.44555 5.06173 8.33566 5.17162C8.22578 5.2815 8.16405 5.43054 8.16405 5.58593V6.56269H6.7578C6.29177 6.56323 5.84498 6.7486 5.51545 7.07814C5.18591 7.40767 5.00054 7.85446 5 8.32049L5 21.289C5.00054 21.755 5.18591 22.2018 5.51545 22.5313C5.84498 22.8609 6.29177 23.0462 6.7578 23.0468H23.2422C23.7082 23.0462 24.155 22.8609 24.4846 22.5313C24.8141 22.2018 24.9995 21.755 25 21.289V8.32049C24.9995 7.85446 24.8141 7.40767 24.4846 7.07814C24.155 6.7486 23.7082 6.56323 23.2422 6.56269ZM6.17187 8.32049C6.17187 8.16509 6.2336 8.01606 6.34349 7.90617C6.45337 7.79629 6.6024 7.73456 6.7578 7.73456H8.16405V8.71102C8.16405 8.86642 8.22578 9.01545 8.33566 9.12534C8.44555 9.23522 8.59458 9.29695 8.74998 9.29695C8.90538 9.29695 9.05442 9.23522 9.1643 9.12534C9.27418 9.01545 9.33592 8.86642 9.33592 8.71102V7.73456H14.4139V8.71102C14.4139 8.86642 14.4757 9.01545 14.5855 9.12534C14.6954 9.23522 14.8445 9.29695 14.9999 9.29695C15.1553 9.29695 15.3043 9.23522 15.4142 9.12534C15.5241 9.01545 15.5858 8.86642 15.5858 8.71102V7.73456H20.6641V8.71102C20.6641 8.86642 20.7258 9.01545 20.8357 9.12534C20.9456 9.23522 21.0946 9.29695 21.25 9.29695C21.4054 9.29695 21.5545 9.23522 21.6643 9.12534C21.7742 9.01545 21.836 8.86642 21.836 8.71102V7.73456H23.2422C23.3976 7.73456 23.5466 7.79629 23.6565 7.90617C23.7664 8.01606 23.8281 8.16509 23.8281 8.32049V10.625H6.17187V8.32049ZM23.2422 21.8749H6.7578C6.6024 21.8749 6.45337 21.8132 6.34349 21.7033C6.2336 21.5934 6.17187 21.4444 6.17187 21.289V11.7968H23.8281V21.289C23.8281 21.4444 23.7664 21.5934 23.6565 21.7033C23.5466 21.8132 23.3976 21.8749 23.2422 21.8749Z" fill="#12B880"/>
</g>
<defs>
<clipPath id="clip0_1_830">
<rect width="20" height="18.0468" fill="white" transform="translate(5 5)"/>
</clipPath>
</defs>
</svg>
