<svg width="30" height="30" viewBox="0 0 30 30" fill="none" xmlns="http://www.w3.org/2000/svg">
<rect width="30" height="30" rx="5" fill="#ECFEF4"/>
<g clip-path="url(#clip0_1_155)">
<path d="M12.0969 10.1688C11.9469 10.0625 11.7625 10 11.5625 10C11.0469 10 10.625 10.4219 10.625 10.9375C10.625 11.4531 11.0469 11.875 11.5625 11.875C12.0781 11.875 12.5 11.4531 12.5 10.9375C12.5 10.85 12.4844 10.7656 12.4594 10.6844C12.7375 10.45 13.0875 10.3125 13.4562 10.3125H16.5437C17.1875 10.3125 17.7562 10.6969 17.9938 11.2937L18.1469 11.6781L18.7281 11.4469L18.575 11.0625C18.2406 10.2281 17.4437 9.6875 16.5437 9.6875H16.1219C16.7594 9.30625 17.1875 8.60938 17.1875 7.8125C17.1875 6.60625 16.2062 5.625 15 5.625C13.7937 5.625 12.8125 6.60625 12.8125 7.8125C12.8125 8.60938 13.2406 9.30625 13.8781 9.6875H13.4562C12.9594 9.6875 12.4781 9.8625 12.0969 10.1688ZM11.5625 11.25C11.3906 11.25 11.25 11.1094 11.25 10.9375C11.25 10.7656 11.3906 10.625 11.5625 10.625C11.7344 10.625 11.875 10.7656 11.875 10.9375C11.875 11.1094 11.7344 11.25 11.5625 11.25ZM13.4375 7.8125C13.4375 6.95 14.1375 6.25 15 6.25C15.8625 6.25 16.5625 6.95 16.5625 7.8125C16.5625 8.675 15.8625 9.375 15 9.375C14.1375 9.375 13.4375 8.675 13.4375 7.8125Z" fill="#12B880"/>
<path d="M9.72187 15.5219C9.72187 16.0969 10.1906 16.5625 10.7656 16.5625C11.1875 16.5625 11.5656 16.3094 11.725 15.9188L12.5 14.0594V17.1563L12.2594 19.8125L12.8812 19.8688L13.1219 17.1844V12.4969C13.1219 12.3469 13.0156 12.2188 12.8719 12.1906C12.725 12.1625 12.5781 12.2406 12.5219 12.3781L11.1469 15.6781C11.0812 15.8344 10.9313 15.9344 10.7625 15.9344C10.5031 15.9344 10.3438 15.7188 10.3438 15.5188C10.3438 15.4688 10.3531 15.4156 10.375 15.3625L11.4125 12.7688L10.8312 12.5375L9.79062 15.1375C9.74062 15.2656 9.71875 15.3938 9.71875 15.5188L9.72187 15.5219Z" fill="#12B880"/>
<path d="M11.95 23.2656C11.95 23.8781 12.4469 24.375 13.0594 24.375C13.6156 24.375 14.0781 23.975 14.1562 23.4219L14.9594 17.8125H15.0437L15.8469 23.4219C15.925 23.975 16.3875 24.375 16.9437 24.375C17.5562 24.375 18.0531 23.8781 18.0531 23.2656C18.0531 23.2281 18.0531 23.1938 18.05 23.1656L17.7469 19.8156L17.125 19.8719L17.4281 23.2312C17.4281 23.2312 17.4281 23.2531 17.4281 23.2656C17.4281 23.5313 17.2094 23.75 16.9437 23.75C16.7 23.75 16.5 23.575 16.4656 23.3344L15.625 17.4563C15.6031 17.3031 15.4719 17.1875 15.3156 17.1875H14.6906C14.5344 17.1875 14.4031 17.3031 14.3812 17.4563L13.5406 23.3344C13.5062 23.575 13.3062 23.75 13.0625 23.75C12.7969 23.75 12.5781 23.5313 12.5781 23.2656C12.5781 23.2531 12.5781 23.2438 12.5781 23.2219L12.6562 22.3719C12.9375 22.2094 13.1281 21.9094 13.1281 21.5625C13.1281 21.0469 12.7062 20.625 12.1906 20.625C11.675 20.625 11.2531 21.0469 11.2531 21.5625C11.2531 22.0219 11.5844 22.4031 12.0187 22.4812L11.9562 23.1531C11.9531 23.1906 11.95 23.225 11.95 23.2625V23.2656ZM11.875 21.5625C11.875 21.3906 12.0156 21.25 12.1875 21.25C12.3594 21.25 12.5 21.3906 12.5 21.5625C12.5 21.7344 12.3594 21.875 12.1875 21.875C12.0156 21.875 11.875 21.7344 11.875 21.5625Z" fill="#12B880"/>
<path d="M20.3125 13.125C20.3125 12.6094 19.8906 12.1875 19.375 12.1875C18.8594 12.1875 18.4375 12.6094 18.4375 13.125C18.4375 13.5375 18.7094 13.8875 19.0813 14.0094L19.6219 15.3656C19.675 15.4969 19.6594 15.6375 19.5781 15.7562C19.5 15.8719 19.375 15.9375 19.2313 15.9375C19.0625 15.9375 18.9125 15.8375 18.8469 15.6813L17.4719 12.3813C17.4156 12.2438 17.2688 12.1656 17.1219 12.1938C16.975 12.2219 16.8719 12.35 16.8719 12.5V17.2156L16.8906 17.4156C16.6906 17.5875 16.5594 17.8406 16.5594 18.125C16.5594 18.6406 16.9813 19.0625 17.4969 19.0625C18.0125 19.0625 18.4344 18.6406 18.4344 18.125C18.4344 17.6094 18.0125 17.1875 17.4969 17.1875V14.0625L18.2719 15.9187C18.4344 16.3094 18.8094 16.5625 19.2313 16.5625C19.5781 16.5625 19.9 16.3906 20.0938 16.1063C20.2875 15.8188 20.3281 15.4563 20.2 15.1344L19.7406 13.9875C20.075 13.8438 20.3094 13.5125 20.3094 13.125H20.3125ZM17.8125 18.125C17.8125 18.2969 17.6719 18.4375 17.5 18.4375C17.3281 18.4375 17.1875 18.2969 17.1875 18.125C17.1875 17.9531 17.3281 17.8125 17.5 17.8125C17.6719 17.8125 17.8125 17.9531 17.8125 18.125ZM19.375 13.4375C19.2031 13.4375 19.0625 13.2969 19.0625 13.125C19.0625 12.9531 19.2031 12.8125 19.375 12.8125C19.5469 12.8125 19.6875 12.9531 19.6875 13.125C19.6875 13.2969 19.5469 13.4375 19.375 13.4375Z" fill="#12B880"/>
<path d="M24.6094 9.2125L22.8688 5.73437C22.7375 5.475 22.4781 5.3125 22.1875 5.3125C21.8969 5.3125 21.6375 5.475 21.5063 5.73437L19.7656 9.2125C19.6469 9.45 19.6594 9.72813 19.8 9.95312C19.9406 10.1781 20.1813 10.3125 20.4469 10.3125H23.925C24.1906 10.3125 24.4313 10.1781 24.5719 9.95312C24.7125 9.72813 24.725 9.45 24.6063 9.2125H24.6094ZM24.0437 9.625C24.0281 9.65 23.9938 9.69063 23.9281 9.69063H20.45C20.3844 9.69063 20.35 9.65 20.3344 9.625C20.3188 9.6 20.3 9.55312 20.3281 9.49375L22.0687 6.01562C22.1 5.95 22.1594 5.94063 22.1906 5.94063C22.2219 5.94063 22.2781 5.95 22.3125 6.01562L24.0531 9.49375C24.0813 9.55312 24.0625 9.60313 24.0469 9.625H24.0437Z" fill="#12B880"/>
<path d="M21.875 6.86249H22.5V8.43124H21.875V6.86249Z" fill="#12B880"/>
<path d="M21.875 8.75H22.5V9.375H21.875V8.75Z" fill="#12B880"/>
<path d="M5.3125 24.0625H10.3125V24.6875H5.3125V24.0625Z" fill="#12B880"/>
<path d="M7.5 23.4375V20.625C7.5 20.4531 7.35938 20.3125 7.1875 20.3125H6.25C6.07812 20.3125 5.9375 20.4531 5.9375 20.625V23.4375H6.5625V20.9375H6.875V23.4375H7.5Z" fill="#12B880"/>
<path d="M9.6875 23.4375V22.1875C9.6875 22.0156 9.54688 21.875 9.375 21.875H8.4375C8.26562 21.875 8.125 22.0156 8.125 22.1875V23.4375H8.75V22.5H9.0625V23.4375H9.6875Z" fill="#12B880"/>
<path d="M6.55 7.89686L6.78437 7.08124L7.19375 9.73124C7.21563 9.87499 7.33437 9.98436 7.48125 9.99686H7.50313C7.64062 9.99686 7.7625 9.90624 7.80313 9.77499L8.43437 7.67186L8.76562 8.83436C8.8 8.94999 8.89687 9.03749 9.01875 9.05624C9.14062 9.07499 9.25938 9.02186 9.32812 8.92186L9.85938 8.12499H10.6281V7.49999H9.69063C9.5875 7.49999 9.4875 7.55311 9.43125 7.64061L9.18125 8.01561L8.74063 6.47811C8.70312 6.34374 8.58125 6.25311 8.44063 6.24999C8.30313 6.24999 8.18125 6.34061 8.14062 6.47186L7.6 8.27186L7.18437 5.57811C7.1625 5.43436 7.04062 5.32186 6.89375 5.31249C6.74687 5.29999 6.6125 5.39686 6.575 5.53749L6.01562 7.49686H5.3125V8.12186H6.25C6.39062 8.12186 6.5125 8.02811 6.55 7.89374V7.89686Z" fill="#12B880"/>
<path d="M20.6875 21.0625L19.75 22.3125L20.25 22.6875L20.625 22.1875V24.6875H21.25V22.1875L21.625 22.6875L22.125 22.3125L21.1875 21.0625C21.0687 20.9062 20.8062 20.9062 20.6875 21.0625Z" fill="#12B880"/>
<path d="M23.125 20.9375V23.4375L22.75 22.9375L22.25 23.3125L23.1875 24.5625C23.2469 24.6406 23.3375 24.6875 23.4375 24.6875C23.5375 24.6875 23.6281 24.6406 23.6875 24.5625L24.625 23.3125L24.125 22.9375L23.75 23.4375V20.9375H23.125Z" fill="#12B880"/>
</g>
<defs>
<clipPath id="clip0_1_155">
<rect width="20" height="20" fill="white" transform="translate(5 5)"/>
</clipPath>
</defs>
</svg>
