<svg width="30" height="30" viewBox="0 0 30 30" fill="none" xmlns="http://www.w3.org/2000/svg">
<rect width="30" height="30" rx="5" fill="#ECFEF4"/>
<g clip-path="url(#clip0_1_578)">
<path d="M23.75 7.91667H6.25C5.91848 7.91667 5.60054 8.04837 5.36612 8.28279C5.1317 8.51721 5 8.83515 5 9.16667V20.8333C5 21.1649 5.1317 21.4828 5.36612 21.7172C5.60054 21.9516 5.91848 22.0833 6.25 22.0833H23.75C24.0815 22.0833 24.3995 21.9516 24.6339 21.7172C24.8683 21.4828 25 21.1649 25 20.8333V9.16667C25 8.83515 24.8683 8.51721 24.6339 8.28279C24.3995 8.04837 24.0815 7.91667 23.75 7.91667ZM24.1667 20.8333C24.1667 20.9438 24.1228 21.0498 24.0446 21.128C23.9665 21.2061 23.8605 21.25 23.75 21.25H6.25C6.13949 21.25 6.03351 21.2061 5.95537 21.128C5.87723 21.0498 5.83333 20.9438 5.83333 20.8333V9.16667C5.83333 9.05616 5.87723 8.95018 5.95537 8.87204C6.03351 8.7939 6.13949 8.75001 6.25 8.75001H23.75C23.8605 8.75001 23.9665 8.7939 24.0446 8.87204C24.1228 8.95018 24.1667 9.05616 24.1667 9.16667V20.8333Z" fill="#12B880"/>
<path d="M13.125 13.3333H11.875V12.1292C11.875 12.0187 11.8311 11.9127 11.753 11.8345C11.6748 11.7564 11.5688 11.7125 11.4583 11.7125H8.95833C8.84783 11.7125 8.74185 11.7564 8.66371 11.8345C8.58557 11.9127 8.54167 12.0187 8.54167 12.1292V13.3333H7.29167C7.18116 13.3333 7.07518 13.3772 6.99704 13.4554C6.9189 13.5335 6.875 13.6395 6.875 13.75V16.25C6.875 16.3605 6.9189 16.4665 6.99704 16.5446C7.07518 16.6228 7.18116 16.6667 7.29167 16.6667H8.54167V17.8708C8.54167 17.9813 8.58557 18.0873 8.66371 18.1655C8.74185 18.2436 8.84783 18.2875 8.95833 18.2875H11.4583C11.5688 18.2875 11.6748 18.2436 11.753 18.1655C11.8311 18.0873 11.875 17.9813 11.875 17.8708V16.6667H13.125C13.2355 16.6667 13.3415 16.6228 13.4196 16.5446C13.4978 16.4665 13.5417 16.3605 13.5417 16.25V13.75C13.5417 13.6395 13.4978 13.5335 13.4196 13.4554C13.3415 13.3772 13.2355 13.3333 13.125 13.3333ZM12.7083 15.8333H11.4583C11.3478 15.8333 11.2418 15.8772 11.1637 15.9554C11.0856 16.0335 11.0417 16.1395 11.0417 16.25V17.4542H9.375V16.25C9.375 16.1395 9.3311 16.0335 9.25296 15.9554C9.17482 15.8772 9.06884 15.8333 8.95833 15.8333H7.70833V14.1667H8.95833C9.06884 14.1667 9.17482 14.1228 9.25296 14.0446C9.3311 13.9665 9.375 13.8605 9.375 13.75V12.5458H11.0417V13.75C11.0417 13.8605 11.0856 13.9665 11.1637 14.0446C11.2418 14.1228 11.3478 14.1667 11.4583 14.1667H12.7083V15.8333Z" fill="#12B880"/>
<path d="M22.7083 11.4583H17.5C17.3895 11.4583 17.2835 11.5022 17.2054 11.5804C17.1272 11.6585 17.0833 11.7645 17.0833 11.875C17.0833 11.9855 17.1272 12.0915 17.2054 12.1696C17.2835 12.2478 17.3895 12.2917 17.5 12.2917H22.7083C22.8189 12.2917 22.9248 12.2478 23.003 12.1696C23.0811 12.0915 23.125 11.9855 23.125 11.875C23.125 11.7645 23.0811 11.6585 23.003 11.5804C22.9248 11.5022 22.8189 11.4583 22.7083 11.4583Z" fill="#12B880"/>
<path d="M22.7083 13.5417H17.5C17.3895 13.5417 17.2835 13.5856 17.2054 13.6637C17.1272 13.7419 17.0833 13.8478 17.0833 13.9583C17.0833 14.0688 17.1272 14.1748 17.2054 14.253C17.2835 14.3311 17.3895 14.375 17.5 14.375H22.7083C22.8189 14.375 22.9248 14.3311 23.003 14.253C23.0811 14.1748 23.125 14.0688 23.125 13.9583C23.125 13.8478 23.0811 13.7419 23.003 13.6637C22.9248 13.5856 22.8189 13.5417 22.7083 13.5417Z" fill="#12B880"/>
<path d="M22.7083 15.625H17.5C17.3895 15.625 17.2835 15.6689 17.2054 15.747C17.1272 15.8252 17.0833 15.9312 17.0833 16.0417C17.0833 16.1522 17.1272 16.2582 17.2054 16.3363C17.2835 16.4144 17.3895 16.4583 17.5 16.4583H22.7083C22.8189 16.4583 22.9248 16.4144 23.003 16.3363C23.0811 16.2582 23.125 16.1522 23.125 16.0417C23.125 15.9312 23.0811 15.8252 23.003 15.747C22.9248 15.6689 22.8189 15.625 22.7083 15.625Z" fill="#12B880"/>
<path d="M22.7083 17.7083H17.5C17.3895 17.7083 17.2835 17.7522 17.2054 17.8304C17.1272 17.9085 17.0833 18.0145 17.0833 18.125C17.0833 18.2355 17.1272 18.3415 17.2054 18.4196C17.2835 18.4978 17.3895 18.5417 17.5 18.5417H22.7083C22.8189 18.5417 22.9248 18.4978 23.003 18.4196C23.0811 18.3415 23.125 18.2355 23.125 18.125C23.125 18.0145 23.0811 17.9085 23.003 17.8304C22.9248 17.7522 22.8189 17.7083 22.7083 17.7083Z" fill="#12B880"/>
</g>
<defs>
<clipPath id="clip0_1_578">
<rect width="20" height="20" fill="white" transform="translate(5 5)"/>
</clipPath>
</defs>
</svg>
