<svg width="30" height="30" viewBox="0 0 30 30" fill="none" xmlns="http://www.w3.org/2000/svg">
<rect width="30" height="30" rx="5" fill="#ECFEF4"/>
<g clip-path="url(#clip0_1_313)">
<path d="M27.2206 15.9031C26.9791 15.0684 26.3291 12.9226 25.5125 11.024C25.4752 10.9374 25.405 10.8692 25.3174 10.8344C25.2298 10.7996 25.132 10.801 25.0454 10.8383C24.9589 10.8756 24.8907 10.9458 24.8559 11.0334C24.821 11.121 24.8224 11.2188 24.8597 11.3054C25.6608 13.1656 26.3003 15.2773 26.538 16.0992C26.5449 16.1236 26.544 16.1496 26.5355 16.1735C26.527 16.1974 26.5114 16.2181 26.4907 16.2328C24.7783 17.4497 22.9124 17.7993 21.6665 17.8808C21.9928 17.3845 22.2135 16.8264 22.315 16.2413C22.4164 15.6561 22.3965 15.0563 22.2563 14.4791C22.6428 14.3981 22.9882 14.4365 23.2852 14.5938C23.2946 14.599 23.3041 14.6028 23.3141 14.607L23.3089 14.6047C23.3197 14.6099 23.5841 14.7359 23.729 15.1153C23.7547 15.1825 23.8001 15.2403 23.8593 15.2812C23.9185 15.322 23.9887 15.344 24.0606 15.3441C24.1039 15.3441 24.1468 15.3361 24.1871 15.3204C24.2307 15.3038 24.2706 15.2788 24.3045 15.2468C24.3384 15.2147 24.3657 15.1763 24.3848 15.1337C24.4038 15.0911 24.4143 15.0452 24.4156 14.9985C24.4168 14.9519 24.4089 14.9055 24.3922 14.8619C24.2719 14.5313 24.0511 14.2467 23.7608 14.0481L22.8479 10.2898C22.8297 10.2148 22.7876 10.1477 22.7279 10.0988C22.6681 10.0499 22.5941 10.0218 22.517 10.0187C22.4399 10.0156 22.3638 10.0377 22.3004 10.0816C22.2369 10.1256 22.1895 10.189 22.1653 10.2623C22.1452 10.3209 22.1129 10.3747 22.0706 10.42C22.0245 10.4699 21.9649 10.5053 21.8991 10.5221C21.8333 10.539 21.7641 10.5364 21.6997 10.5148L20.8745 10.24C20.7191 10.1877 20.5893 10.0785 20.511 9.93442C20.4328 9.79035 20.4118 9.62201 20.4525 9.46316L20.6789 8.59345C20.7185 8.4416 20.8119 8.30929 20.9417 8.22105C21.0715 8.13281 21.2289 8.09463 21.3847 8.1136L22.8764 8.29739C22.9189 8.30214 22.9598 8.31621 22.9962 8.3386C23.2402 8.4954 23.6475 8.89756 24.1994 9.9217C24.2207 9.96424 24.2503 10.0021 24.2864 10.033C24.3226 10.0639 24.3646 10.0872 24.41 10.1015C24.4553 10.1159 24.5031 10.121 24.5504 10.1165C24.5978 10.1121 24.6438 10.0981 24.6856 10.0756C24.7275 10.053 24.7644 10.0223 24.7942 9.98521C24.824 9.94812 24.846 9.90543 24.859 9.85966C24.8719 9.8139 24.8756 9.766 24.8697 9.7188C24.8638 9.67161 24.8485 9.62607 24.8247 9.5849C24.3169 8.64224 23.8441 8.03875 23.3799 7.74079C23.2538 7.66081 23.1113 7.61014 22.9631 7.59253L21.4714 7.40873C21.1446 7.36917 20.8145 7.4494 20.5423 7.63458C20.2701 7.81975 20.0743 8.0973 19.9911 8.41581L19.7651 9.28552C19.6795 9.61868 19.7231 9.97192 19.8872 10.2742C20.0514 10.5765 20.3239 10.8055 20.65 10.915L21.4752 11.1898C21.6129 11.2355 21.7586 11.2525 21.9032 11.2398C22.0478 11.2271 22.1883 11.1849 22.316 11.1159L22.9574 13.7497C22.6481 13.7072 22.3336 13.7242 22.0308 13.7999C21.7585 13.1639 21.3374 12.6026 20.8029 12.1633C20.2684 11.724 19.6362 11.4196 18.9595 11.2757C18.2827 11.1317 17.5814 11.1525 16.9143 11.3362C16.2473 11.52 15.6342 11.8613 15.1267 12.3314C14.6193 11.8608 14.0063 11.5192 13.3392 11.3352C12.6721 11.1512 11.9706 11.1303 11.2938 11.2743C10.617 11.4182 9.98467 11.7228 9.45024 12.1624C8.9158 12.6019 8.49489 13.1635 8.22299 13.7999C7.92 13.7242 7.60535 13.7072 7.29597 13.7497L7.93735 11.1159C8.06517 11.1851 8.2058 11.2273 8.35058 11.24C8.49536 11.2527 8.6412 11.2356 8.77911 11.1898L9.60477 10.915C9.93069 10.8053 10.203 10.5763 10.3671 10.274C10.5311 9.97175 10.5747 9.61862 10.4892 9.28552L10.2623 8.41581C10.1788 8.09753 9.98283 7.82026 9.71069 7.63529C9.43855 7.45032 9.10863 7.37017 8.78196 7.40968L7.29028 7.59347C7.14201 7.61117 6.99957 7.66183 6.87343 7.74174C6.11788 8.22633 5.32112 9.53895 4.44004 11.7525C3.75792 13.4621 3.2288 15.2243 3.03268 15.9031C2.9851 16.0692 2.99026 16.246 3.04744 16.4091C3.10463 16.5722 3.21103 16.7135 3.35196 16.8135C3.94398 17.2323 4.58291 17.5805 5.25575 17.8509C5.29915 17.8691 5.34573 17.8785 5.39278 17.8785C5.43983 17.8785 5.48642 17.8692 5.52984 17.8511C5.57327 17.833 5.61266 17.8064 5.64573 17.7729C5.6788 17.7395 5.70489 17.6998 5.72249 17.6561C5.74009 17.6125 5.74884 17.5658 5.74825 17.5187C5.74765 17.4717 5.73772 17.4252 5.71902 17.382C5.70032 17.3389 5.67323 17.2998 5.63932 17.2672C5.60541 17.2346 5.56536 17.209 5.52149 17.192C4.90021 16.9423 4.31025 16.6209 3.7636 16.2342C3.74291 16.2195 3.72725 16.1988 3.71877 16.1749C3.7103 16.151 3.70941 16.125 3.71623 16.1006C4.61626 12.9917 6.08472 9.09415 7.25807 8.33955C7.29464 8.31709 7.33573 8.30301 7.37839 8.29834L8.87006 8.11454C9.02583 8.09578 9.18312 8.13404 9.31286 8.22225C9.44261 8.31046 9.53603 8.44265 9.57587 8.5944L9.80183 9.46411C9.8427 9.62291 9.82194 9.79129 9.74373 9.93541C9.66552 10.0795 9.53565 10.1887 9.38024 10.241L8.55458 10.5157C8.4902 10.5373 8.42096 10.5398 8.35517 10.523C8.28938 10.5062 8.22983 10.4708 8.18368 10.421C8.14125 10.3755 8.10896 10.3216 8.08894 10.2628C8.0647 10.1895 8.01725 10.1261 7.95377 10.0822C7.89029 10.0382 7.81423 10.0162 7.7371 10.0193C7.65997 10.0225 7.58597 10.0507 7.52629 10.0997C7.46661 10.1486 7.4245 10.2157 7.40634 10.2907L6.49257 14.0476C6.20228 14.2463 5.98148 14.5309 5.86114 14.8614C5.84223 14.9054 5.8324 14.9528 5.83226 15.0006C5.83211 15.0485 5.84165 15.0959 5.86029 15.14C5.87893 15.1841 5.90629 15.224 5.94073 15.2573C5.97517 15.2905 6.01598 15.3165 6.06071 15.3336C6.10543 15.3507 6.15315 15.3586 6.201 15.3567C6.24885 15.3549 6.29583 15.3435 6.33913 15.323C6.38243 15.3026 6.42116 15.2736 6.45298 15.2379C6.4848 15.2021 6.50907 15.1602 6.52431 15.1149C6.66926 14.7359 6.93359 14.6094 6.94448 14.6042L6.93927 14.6066C6.94922 14.6023 6.95869 14.5985 6.96817 14.5933C7.26518 14.436 7.6105 14.3977 7.99704 14.4787C7.85713 15.0561 7.83754 15.6562 7.93949 16.2416C8.04144 16.827 8.26274 17.3851 8.58964 17.8812C8.04031 17.8447 7.49477 17.7644 6.95822 17.6411C6.86638 17.62 6.76992 17.6362 6.69006 17.6862C6.6102 17.7362 6.55347 17.8159 6.53237 17.9078C6.51126 17.9996 6.5275 18.0961 6.57751 18.1759C6.62753 18.2558 6.70722 18.3125 6.79906 18.3336C7.58647 18.5146 8.39136 18.6086 9.19928 18.6141L14.5274 23.9446C14.6864 24.1035 14.9019 24.1928 15.1267 24.1928C15.3514 24.1928 15.567 24.1035 15.7259 23.9446L18.5288 21.1422C18.5954 21.0755 18.6329 20.9851 18.6329 20.8909C18.6329 20.7966 18.5954 20.7062 18.5288 20.6396C18.4621 20.5729 18.3717 20.5355 18.2775 20.5355C18.1832 20.5355 18.0928 20.5729 18.0262 20.6396L15.2214 23.442C15.2088 23.4548 15.1937 23.4649 15.1771 23.4718C15.1605 23.4787 15.1427 23.4823 15.1248 23.4823C15.1068 23.4823 15.089 23.4787 15.0724 23.4718C15.0558 23.4649 15.0408 23.4548 15.0281 23.442L9.6403 18.0527C8.97409 17.3738 8.60286 16.4594 8.60734 15.5082C8.61182 14.557 8.99166 13.6461 9.66424 12.9735C10.3368 12.3009 11.2478 11.9211 12.1989 11.9166C13.1501 11.9121 14.0646 12.2834 14.7434 12.9496L14.8756 13.0817C14.9422 13.1483 15.0325 13.1856 15.1267 13.1856C15.2208 13.1856 15.3111 13.1483 15.3777 13.0817L15.5099 12.9501C15.8433 12.6075 16.2414 12.3346 16.6811 12.1472C17.1208 11.9599 17.5934 11.8617 18.0714 11.8584C18.5493 11.8552 19.0232 11.9469 19.4654 12.1284C19.9076 12.3098 20.3094 12.5772 20.6474 12.9152C20.9854 13.2532 21.2529 13.6549 21.4344 14.0971C21.6158 14.5393 21.7076 15.0132 21.7044 15.4911C21.7012 15.9691 21.6031 16.4417 21.4157 16.8814C21.2284 17.3212 20.9555 17.7193 20.613 18.0527L19.1256 19.5397C19.064 19.6071 19.0308 19.6957 19.0328 19.787C19.0348 19.8784 19.0719 19.9654 19.1364 20.0301C19.2009 20.0948 19.2878 20.1321 19.3792 20.1344C19.4705 20.1367 19.5592 20.1037 19.6268 20.0423L21.055 18.6141C22.3169 18.6088 24.7181 18.3639 26.9 16.814C27.0412 16.7141 27.148 16.5728 27.2054 16.4096C27.2629 16.2464 27.2682 16.0694 27.2206 15.9031Z" fill="#12B880"/>
<path d="M13.2882 9.05912H13.7354V9.50534C13.7357 9.72512 13.8231 9.93583 13.9785 10.0912C14.1339 10.2466 14.3446 10.3341 14.5644 10.3343H15.6889C15.9087 10.3341 16.1194 10.2466 16.2748 10.0912C16.4302 9.93583 16.5177 9.72512 16.5179 9.50534V9.05817H16.9651C17.1848 9.05779 17.3955 8.97034 17.5508 8.81495C17.7062 8.65957 17.7937 8.44894 17.7941 8.2292V7.10559C17.7938 6.88581 17.7064 6.6751 17.551 6.51969C17.3956 6.36429 17.1849 6.27687 16.9651 6.27662H16.5179V5.82897C16.5177 5.60919 16.4302 5.39848 16.2748 5.24308C16.1194 5.08767 15.9087 5.00025 15.6889 5H14.5644C14.3446 5.00025 14.1339 5.08767 13.9785 5.24308C13.8231 5.39848 13.7357 5.60919 13.7354 5.82897V6.27662H13.2882C13.0685 6.27687 12.8578 6.36429 12.7024 6.51969C12.5469 6.6751 12.4595 6.88581 12.4593 7.10559V8.23015C12.4597 8.44989 12.5471 8.66052 12.7025 8.8159C12.8579 8.97128 13.0685 9.05874 13.2882 9.05912ZM13.1698 7.10559C13.1698 7.07418 13.1823 7.04406 13.2045 7.02185C13.2267 6.99964 13.2568 6.98716 13.2882 6.98716H14.0907C14.1849 6.98716 14.2753 6.94973 14.3419 6.88311C14.4085 6.81648 14.446 6.72611 14.446 6.63189V5.8266C14.4461 5.79523 14.4586 5.76518 14.4808 5.743C14.503 5.72082 14.533 5.7083 14.5644 5.70818H15.6889C15.7203 5.7083 15.7504 5.72082 15.7725 5.743C15.7947 5.76518 15.8072 5.79523 15.8074 5.8266V6.63189C15.8074 6.72611 15.8448 6.81648 15.9114 6.88311C15.9781 6.94973 16.0684 6.98716 16.1626 6.98716H16.9651C16.9965 6.98716 17.0266 6.99964 17.0488 7.02185C17.071 7.04406 17.0835 7.07418 17.0835 7.10559V8.23015C17.0834 8.26152 17.0709 8.29157 17.0487 8.31375C17.0265 8.33593 16.9965 8.34845 16.9651 8.34857H16.1626C16.116 8.34851 16.0697 8.35766 16.0266 8.37549C15.9835 8.39332 15.9443 8.41949 15.9113 8.45249C15.8783 8.48549 15.8521 8.52468 15.8343 8.56781C15.8165 8.61095 15.8073 8.65717 15.8074 8.70384V9.50534C15.8074 9.53675 15.7949 9.56687 15.7727 9.58908C15.7505 9.61129 15.7204 9.62377 15.6889 9.62377H14.5644C14.533 9.62377 14.5029 9.61129 14.4806 9.58908C14.4584 9.56687 14.446 9.53675 14.446 9.50534V8.70384C14.446 8.60962 14.4085 8.51925 14.3419 8.45263C14.2753 8.386 14.1849 8.34857 14.0907 8.34857H13.2882C13.2569 8.34845 13.2268 8.33593 13.2046 8.31375C13.1825 8.29157 13.1699 8.26152 13.1698 8.23015V7.10559Z" fill="#12B880"/>
<path d="M15.1267 19.3582C15.4699 19.359 15.8077 19.2724 16.1082 19.1067C16.4088 18.9409 16.6622 18.7015 16.8448 18.4108C16.89 18.3314 16.9028 18.2376 16.8807 18.1489C16.8585 18.0602 16.803 17.9835 16.7257 17.9347C16.6484 17.8859 16.5553 17.8688 16.4657 17.8869C16.3761 17.905 16.2969 17.9569 16.2446 18.0319C16.1256 18.2207 15.9606 18.3764 15.7652 18.4842C15.5697 18.592 15.3501 18.6486 15.1269 18.6486C14.9037 18.6486 14.6841 18.592 14.4886 18.4842C14.2932 18.3764 14.1282 18.2207 14.0092 18.0319C13.9576 17.9554 13.8781 17.902 13.7878 17.883C13.6975 17.864 13.6033 17.881 13.5252 17.9302C13.4471 17.9795 13.3913 18.0572 13.3695 18.1469C13.3478 18.2366 13.3618 18.3313 13.4086 18.4108C13.5911 18.7015 13.8446 18.9409 14.1451 19.1067C14.4457 19.2724 14.7834 19.359 15.1267 19.3582Z" fill="#12B880"/>
<path d="M13.7335 16.6307V16.3872C13.7335 16.293 13.6961 16.2026 13.6295 16.136C13.5628 16.0694 13.4725 16.0319 13.3782 16.0319C13.284 16.0319 13.1937 16.0694 13.127 16.136C13.0604 16.2026 13.023 16.293 13.023 16.3872V16.6307C13.023 16.7249 13.0604 16.8153 13.127 16.8819C13.1937 16.9485 13.284 16.9859 13.3782 16.9859C13.4725 16.9859 13.5628 16.9485 13.6295 16.8819C13.6961 16.8153 13.7335 16.7249 13.7335 16.6307Z" fill="#12B880"/>
<path d="M17.2304 16.6307V16.3872C17.2304 16.293 17.1929 16.2026 17.1263 16.136C17.0597 16.0694 16.9693 16.0319 16.8751 16.0319C16.7809 16.0319 16.6905 16.0694 16.6239 16.136C16.5572 16.2026 16.5198 16.293 16.5198 16.3872V16.6307C16.5198 16.7249 16.5572 16.8153 16.6239 16.8819C16.6905 16.9485 16.7809 16.9859 16.8751 16.9859C16.9693 16.9859 17.0597 16.9485 17.1263 16.8819C17.1929 16.8153 17.2304 16.7249 17.2304 16.6307Z" fill="#12B880"/>
<path d="M9.29118 20.9418H8.84354V20.4951C8.84329 20.2753 8.75587 20.0646 8.60046 19.9092C8.44505 19.7538 8.23435 19.6664 8.01457 19.6661H6.89048C6.6707 19.6664 6.45999 19.7538 6.30459 19.9092C6.14918 20.0646 6.06176 20.2753 6.06151 20.4951V20.9428H5.61386C5.39408 20.943 5.18338 21.0304 5.02797 21.1858C4.87256 21.3412 4.78514 21.5519 4.78489 21.7717V22.8958C4.78514 23.1156 4.87256 23.3263 5.02797 23.4817C5.18338 23.6371 5.39408 23.7245 5.61386 23.7248H6.06151V24.1724C6.06176 24.3922 6.14918 24.6029 6.30459 24.7583C6.45999 24.9137 6.6707 25.0011 6.89048 25.0014H8.01504C8.23478 25.001 8.44541 24.9136 8.6008 24.7582C8.75618 24.6028 8.84363 24.3922 8.84401 24.1724V23.7248H9.29118C9.51096 23.7245 9.72167 23.6371 9.87708 23.4817C10.0325 23.3263 10.1199 23.1156 10.1202 22.8958V21.7703C10.1198 21.5506 10.0323 21.34 9.87691 21.1847C9.72151 21.0294 9.51088 20.9421 9.29118 20.9418ZM9.40961 22.8949C9.40961 22.9263 9.39713 22.9564 9.37492 22.9786C9.35271 23.0008 9.32259 23.0133 9.29118 23.0133H8.48874C8.39451 23.0133 8.30415 23.0507 8.23752 23.1173C8.17089 23.184 8.13346 23.2743 8.13346 23.3686V24.1715C8.13334 24.2028 8.12082 24.2329 8.09864 24.2551C8.07646 24.2773 8.04641 24.2898 8.01504 24.2899H6.89048C6.85907 24.2899 6.82895 24.2774 6.80674 24.2552C6.78453 24.233 6.77206 24.2029 6.77206 24.1715V23.3686C6.77206 23.2743 6.73463 23.184 6.668 23.1173C6.60137 23.0507 6.51101 23.0133 6.41678 23.0133H5.61386C5.58249 23.0132 5.55245 23.0006 5.53026 22.9785C5.50808 22.9563 5.49556 22.9262 5.49544 22.8949V21.7708C5.49556 21.7394 5.50808 21.7094 5.53026 21.6872C5.55245 21.665 5.58249 21.6525 5.61386 21.6524H6.41678C6.51101 21.6524 6.60137 21.6149 6.668 21.5483C6.73463 21.4817 6.77206 21.3913 6.77206 21.2971V20.4951C6.77206 20.4637 6.78453 20.4336 6.80674 20.4114C6.82895 20.3892 6.85907 20.3767 6.89048 20.3767H8.01457C8.04597 20.3767 8.0761 20.3892 8.0983 20.4114C8.12051 20.4336 8.13299 20.4637 8.13299 20.4951V21.298C8.13299 21.3923 8.17042 21.4826 8.23705 21.5492C8.30367 21.6159 8.39404 21.6533 8.48826 21.6533H9.29355C9.32496 21.6533 9.35508 21.6658 9.37729 21.688C9.3995 21.7102 9.41197 21.7403 9.41197 21.7717L9.40961 22.8949Z" fill="#12B880"/>
<path d="M24.6395 20.9418H24.1918V20.4951C24.1916 20.2753 24.1042 20.0646 23.9487 19.9092C23.7933 19.7538 23.5826 19.6664 23.3629 19.6661H22.2388C22.019 19.6664 21.8083 19.7538 21.6529 19.9092C21.4975 20.0646 21.41 20.2753 21.4098 20.4951V20.9428H20.9622C20.7424 20.943 20.5317 21.0304 20.3763 21.1858C20.2208 21.3412 20.1334 21.5519 20.1332 21.7717V22.8958C20.1334 23.1156 20.2208 23.3263 20.3763 23.4817C20.5317 23.6371 20.7424 23.7245 20.9622 23.7248H21.4098V24.1724C21.41 24.3922 21.4975 24.6029 21.6529 24.7583C21.8083 24.9137 22.019 25.0011 22.2388 25.0014H23.3629C23.5826 25.0011 23.7933 24.9137 23.9487 24.7583C24.1042 24.6029 24.1916 24.3922 24.1918 24.1724V23.7248H24.6395C24.8592 23.7245 25.07 23.6371 25.2254 23.4817C25.3808 23.3263 25.4682 23.1156 25.4684 22.8958V21.7708C25.4682 21.551 25.3808 21.3403 25.2254 21.1849C25.07 21.0295 24.8592 20.9421 24.6395 20.9418ZM24.7579 22.8949C24.7579 22.9263 24.7454 22.9564 24.7232 22.9786C24.701 23.0008 24.6709 23.0133 24.6395 23.0133H23.8365C23.7423 23.0133 23.652 23.0507 23.5853 23.1173C23.5187 23.184 23.4813 23.2743 23.4813 23.3686V24.1715C23.4813 24.2029 23.4688 24.233 23.4466 24.2552C23.4244 24.2774 23.3943 24.2899 23.3629 24.2899H22.2388C22.2074 24.2899 22.1772 24.2774 22.155 24.2552C22.1328 24.233 22.1203 24.2029 22.1203 24.1715V23.3686C22.1203 23.2743 22.0829 23.184 22.0163 23.1173C21.9497 23.0507 21.8593 23.0133 21.7651 23.0133H20.9622C20.9307 23.0133 20.9006 23.0008 20.8784 22.9786C20.8562 22.9564 20.8437 22.9263 20.8437 22.8949V21.7708C20.8437 21.7394 20.8562 21.7092 20.8784 21.687C20.9006 21.6648 20.9307 21.6524 20.9622 21.6524H21.7651C21.8593 21.6524 21.9497 21.6149 22.0163 21.5483C22.0829 21.4817 22.1203 21.3913 22.1203 21.2971V20.4951C22.1203 20.4637 22.1328 20.4336 22.155 20.4114C22.1772 20.3892 22.2074 20.3767 22.2388 20.3767H23.3629C23.3943 20.3767 23.4244 20.3892 23.4466 20.4114C23.4688 20.4336 23.4813 20.4637 23.4813 20.4951V21.298C23.4813 21.3923 23.5187 21.4826 23.5853 21.5492C23.652 21.6159 23.7423 21.6533 23.8365 21.6533H24.6395C24.6709 21.6533 24.701 21.6658 24.7232 21.688C24.7454 21.7102 24.7579 21.7403 24.7579 21.7717V22.8949Z" fill="#12B880"/>
</g>
<defs>
<clipPath id="clip0_1_313">
<rect width="24.2533" height="20" fill="white" transform="translate(3 5)"/>
</clipPath>
</defs>
</svg>
