<svg width="30" height="30" viewBox="0 0 30 30" fill="none" xmlns="http://www.w3.org/2000/svg">
<rect width="30" height="30" rx="5" fill="#ECFEF4"/>
<path d="M14.9932 16.1019C12.5557 16.0224 11.9711 13.9354 11.8459 13.2616C11.6113 13.2073 11.4022 13.0744 11.2532 12.8851C11.0832 12.6508 11.0043 12.3626 11.0314 12.0743C11.012 11.919 11.0255 11.7614 11.071 11.6116C11.1164 11.4618 11.1928 11.3233 11.2951 11.2049C11.3529 11.1456 11.4193 11.0955 11.4922 11.0562C11.0391 10.3248 10.816 9.47423 10.8516 8.6146C11.1338 6.59838 12.7586 6.40217 13.2676 6.39081C13.5018 6.11839 13.7946 5.90246 14.1241 5.75919C14.7412 5.51025 15.4233 5.47225 16.0643 5.65108C17.3243 5.98 18.1646 6.61081 18.5632 7.52622C19.1308 8.8273 18.633 10.3249 18.347 10.9973C18.4561 11.0327 18.5566 11.0904 18.6422 11.1668C18.7586 11.285 18.8464 11.4284 18.8987 11.5859C18.951 11.7433 18.9664 11.9107 18.9438 12.0751C18.9711 12.3634 18.8923 12.6517 18.7222 12.8859C18.5731 13.0752 18.3639 13.208 18.1292 13.2624C18.0041 13.9354 17.4208 16.0224 14.9932 16.1019ZM11.9438 11.4884C11.8479 11.4839 11.7542 11.5173 11.6827 11.5814C11.6332 11.6506 11.598 11.7291 11.579 11.812C11.56 11.895 11.5577 11.981 11.5722 12.0649C11.5733 12.0829 11.5727 12.101 11.5703 12.1189C11.5556 12.2741 11.5956 12.4294 11.6835 12.5581C11.7383 12.6193 11.8048 12.669 11.8791 12.7042C11.9533 12.7393 12.0339 12.7593 12.1159 12.763C12.1777 12.7703 12.2351 12.7987 12.2784 12.8434C12.3217 12.8881 12.3482 12.9464 12.3535 13.0084C12.3624 13.1089 12.6022 15.4832 14.9938 15.5616C17.3722 15.4832 17.613 13.1089 17.6219 13.0078C17.6273 12.9459 17.6539 12.8878 17.6972 12.8432C17.7404 12.7986 17.7977 12.7703 17.8595 12.763C17.9416 12.7594 18.0221 12.7394 18.0964 12.7042C18.1706 12.669 18.2371 12.6194 18.2919 12.5581C18.3801 12.4288 18.4202 12.2726 18.4051 12.1168C18.4029 12.0994 18.4022 12.0818 18.4032 12.0643C18.4179 11.9777 18.4146 11.889 18.3936 11.8036C18.3727 11.7183 18.3344 11.6381 18.2814 11.5681C18.1969 11.5059 18.0919 11.4785 17.9878 11.4914C17.9378 11.5002 17.8863 11.4948 17.8392 11.4758C17.7921 11.4567 17.7514 11.4248 17.7216 11.3836C17.6919 11.3424 17.6743 11.2937 17.6709 11.243C17.6676 11.1924 17.6786 11.1417 17.7027 11.097C17.7127 11.0781 18.7027 9.19919 18.0665 7.73892C17.737 6.98433 17.0178 6.45757 15.9284 6.17325C15.4048 6.02506 14.8469 6.05356 14.3411 6.25433C14.0533 6.37831 13.8025 6.57456 13.613 6.82406C13.5857 6.86117 13.5493 6.89062 13.5073 6.90956C13.4653 6.9285 13.4191 6.93628 13.3732 6.93217C13.3032 6.92649 11.6484 6.81946 11.3889 8.66946C11.3889 8.66946 11.3141 10.1411 12.1665 11.033C12.2036 11.0718 12.2284 11.1208 12.2375 11.1738C12.2467 11.2267 12.2398 11.2812 12.2178 11.3303C12.1976 11.3806 12.1619 11.4232 12.1159 11.4519C12.0699 11.4806 12.016 11.4939 11.9619 11.49L11.9438 11.4884Z" fill="#12B880"/>
<path d="M17.9408 11.4949C17.8711 11.4949 17.804 11.468 17.7536 11.4198C17.7032 11.3715 17.6735 11.3056 17.6705 11.2359C17.6673 11.1659 17.5835 9.53324 16.3646 9.37621C15.8071 9.44702 15.241 9.40288 14.7012 9.24651C14.1614 9.09014 13.6593 8.82486 13.2259 8.46703C12.8814 8.72621 12.0873 9.51405 12.24 11.1943C12.242 11.2631 12.2177 11.3301 12.1721 11.3815C12.1264 11.433 12.0629 11.4652 11.9944 11.4714C11.9258 11.4776 11.8575 11.4575 11.8033 11.4151C11.7491 11.3727 11.7131 11.3113 11.7027 11.2432C11.4786 8.77811 13.0616 7.92243 13.1289 7.8873C13.179 7.86115 13.236 7.85137 13.292 7.85932C13.3479 7.86727 13.4 7.89255 13.4408 7.93162C13.826 8.28054 14.2821 8.54214 14.7777 8.69855C15.2734 8.85495 15.797 8.90246 16.3127 8.83784C16.3374 8.83383 16.3626 8.83293 16.3876 8.83513C17.7616 8.97811 18.1814 10.4543 18.2111 11.2135C18.2139 11.285 18.1882 11.3547 18.1396 11.4073C18.0911 11.4599 18.0237 11.4911 17.9522 11.4941L17.9408 11.4949Z" fill="#12B880"/>
<path d="M22.5916 24.4595H7.40839C7.33671 24.4595 7.26797 24.431 7.21728 24.3803C7.1666 24.3296 7.13812 24.2609 7.13812 24.1892V21.1762C7.14005 20.2239 7.51955 19.3113 8.1934 18.6384C8.86725 17.9655 9.78044 17.5873 10.7327 17.5868H11.2516C11.3233 17.5868 11.3921 17.6152 11.4427 17.6659C11.4934 17.7166 11.5219 17.7853 11.5219 17.857C11.5219 17.9287 11.4934 17.9974 11.4427 18.0481C11.3921 18.0988 11.3233 18.1273 11.2516 18.1273H10.7327C9.92375 18.1277 9.14797 18.4489 8.57546 19.0205C8.00296 19.592 7.68045 20.3673 7.67866 21.1762V23.9189H22.3214V21.1762C22.3204 20.3679 21.9989 19.5929 21.4273 19.0213C20.8558 18.4497 20.0808 18.1282 19.2724 18.1273H18.7162C18.6446 18.1273 18.5758 18.0988 18.5251 18.0481C18.4744 17.9974 18.446 17.9287 18.446 17.857C18.446 17.7853 18.4744 17.7166 18.5251 17.6659C18.5758 17.6152 18.6446 17.5868 18.7162 17.5868H19.2724C20.224 17.5881 21.1362 17.9667 21.8091 18.6396C22.4819 19.3124 22.8605 20.2246 22.8619 21.1762V24.1892C22.8619 24.2609 22.8334 24.3296 22.7827 24.3803C22.7321 24.431 22.6633 24.4595 22.5916 24.4595Z" fill="#12B880"/>
<path d="M15.9032 24.4595C15.8643 24.4595 15.8259 24.4511 15.7905 24.4349C15.7552 24.4186 15.7237 24.395 15.6984 24.3655C15.673 24.336 15.6543 24.3014 15.6435 24.264C15.6327 24.2267 15.6302 24.1874 15.636 24.1489L16.7297 16.9103C16.7355 16.872 16.7495 16.8354 16.7707 16.8029C16.7918 16.7705 16.8197 16.743 16.8525 16.7223C16.8852 16.7016 16.922 16.6882 16.9604 16.6829C16.9987 16.6777 17.0378 16.6807 17.0749 16.6919L18.9624 17.2608C19 17.2721 19.0347 17.2915 19.064 17.3176C19.0934 17.3437 19.1167 17.3759 19.1323 17.4119C19.1479 17.4479 19.1556 17.4869 19.1546 17.5262C19.1536 17.5654 19.1441 17.604 19.1268 17.6392L18.3765 19.1446L18.8116 19.633C18.8502 19.6766 18.8737 19.7314 18.8785 19.7894C18.8834 19.8474 18.8694 19.9055 18.8387 19.9549L16.133 24.3314C16.1088 24.3705 16.075 24.4028 16.0347 24.4252C15.9945 24.4477 15.9493 24.4594 15.9032 24.4595ZM17.2178 17.2995L16.3678 22.9246L18.2741 19.8435L17.8516 19.3692C17.8157 19.3289 17.7926 19.2787 17.7855 19.2252C17.7783 19.1717 17.7873 19.1173 17.8114 19.0689L18.5 17.6868L17.2178 17.2995Z" fill="#12B880"/>
<path d="M14.0657 24.4595C14.0196 24.4595 13.9743 24.4477 13.934 24.4253C13.8938 24.4029 13.8599 24.3705 13.8357 24.3313L11.1292 19.9557C11.0984 19.9063 11.0845 19.8482 11.0893 19.7902C11.0942 19.7322 11.1177 19.6774 11.1562 19.6338L11.5914 19.1454L10.8411 17.64C10.8237 17.6048 10.8142 17.5662 10.8133 17.527C10.8123 17.4877 10.8199 17.4487 10.8355 17.4127C10.8512 17.3767 10.8745 17.3445 10.9038 17.3184C10.9331 17.2923 10.9678 17.273 11.0054 17.2616L12.893 16.6927C12.93 16.6816 12.9691 16.6786 13.0074 16.6838C13.0458 16.6891 13.0825 16.7025 13.1152 16.7232C13.1479 16.7439 13.1758 16.7714 13.1969 16.8038C13.2181 16.8362 13.232 16.8728 13.2378 16.9111L14.3322 24.1497C14.3378 24.1881 14.3352 24.2272 14.3244 24.2644C14.3136 24.3016 14.2949 24.3361 14.2697 24.3655C14.2444 24.3948 14.2131 24.4184 14.1779 24.4346C14.1427 24.4509 14.1044 24.4593 14.0657 24.4595ZM11.6949 19.8427L13.6011 22.9238L12.7511 17.2995L11.4689 17.6859L12.1573 19.0681C12.1814 19.1164 12.1905 19.1709 12.1833 19.2244C12.1762 19.2779 12.1532 19.328 12.1173 19.3684L11.6949 19.8427Z" fill="#12B880"/>
<path d="M15.0046 19.4203C14.4202 19.4199 13.8364 19.3845 13.2562 19.3143C13.2202 19.311 13.1853 19.3006 13.1534 19.2835C13.1216 19.2665 13.0934 19.2432 13.0707 19.2151C13.048 19.187 13.0311 19.1547 13.0211 19.12C13.0111 19.0852 13.0082 19.0489 13.0125 19.013C13.0168 18.9771 13.0283 18.9425 13.0462 18.9111C13.0641 18.8797 13.0881 18.8523 13.1168 18.8304C13.1456 18.8084 13.1784 18.7925 13.2134 18.7835C13.2484 18.7744 13.2848 18.7725 13.3205 18.7778C14.4251 18.9137 15.5422 18.9137 16.6467 18.7778C16.7172 18.7702 16.7878 18.7906 16.8434 18.8345C16.899 18.8784 16.9351 18.9425 16.944 19.0128C16.9528 19.0831 16.9337 19.154 16.8908 19.2104C16.8478 19.2667 16.7844 19.304 16.7143 19.3141C16.1472 19.3852 15.5762 19.4207 15.0046 19.4203Z" fill="#12B880"/>
<path d="M16.9976 17.2208C16.9555 17.2207 16.914 17.2107 16.8765 17.1917C16.839 17.1727 16.8064 17.1452 16.7813 17.1114C16.3797 16.5684 16.307 15.4922 16.3003 15.3714C16.2961 15.2998 16.3206 15.2296 16.3682 15.1761C16.4158 15.1225 16.4828 15.0901 16.5543 15.0859C16.6256 15.0826 16.6955 15.1073 16.7488 15.1548C16.8021 15.2023 16.8348 15.2688 16.8397 15.34C16.8562 15.6243 16.9562 16.4392 17.2157 16.79C17.2453 16.8302 17.2633 16.8777 17.2675 16.9275C17.2718 16.9772 17.2622 17.0272 17.2398 17.0718C17.2174 17.1164 17.1831 17.1539 17.1407 17.1802C17.0982 17.2065 17.0494 17.2206 16.9994 17.2208H16.9976Z" fill="#12B880"/>
<path d="M12.9713 17.2208C12.9214 17.2206 12.8725 17.2065 12.8301 17.1802C12.7877 17.1539 12.7534 17.1164 12.731 17.0718C12.7086 17.0272 12.699 16.9772 12.7033 16.9275C12.7075 16.8777 12.7255 16.8302 12.7551 16.79C13.0151 16.4386 13.1148 15.624 13.1313 15.34C13.1334 15.3045 13.1424 15.2698 13.1579 15.2378C13.1734 15.2058 13.195 15.1771 13.2216 15.1535C13.2481 15.1298 13.2791 15.1117 13.3127 15.1C13.3462 15.0883 13.3818 15.0833 13.4173 15.0854C13.4528 15.0875 13.4875 15.0965 13.5195 15.112C13.5515 15.1275 13.5802 15.1491 13.6038 15.1756C13.6274 15.2022 13.6456 15.2331 13.6573 15.2667C13.669 15.3003 13.6739 15.3359 13.6719 15.3713C13.6651 15.4922 13.5908 16.5684 13.1908 17.1113C13.1654 17.1456 13.1323 17.1734 13.0942 17.1924C13.0561 17.2114 13.014 17.2212 12.9713 17.2208Z" fill="#12B880"/>
<path d="M20.4473 20.6714C20.377 20.6714 20.3094 20.644 20.2589 20.595C20.2085 20.546 20.1791 20.4792 20.177 20.4089C20.1265 18.6489 19.4573 18.0951 19.4508 18.0897C19.395 18.0454 19.3588 17.9809 19.35 17.9102C19.3412 17.8394 19.3605 17.768 19.4038 17.7114C19.4468 17.6552 19.5102 17.6182 19.5803 17.6085C19.6504 17.5987 19.7215 17.6171 19.7781 17.6595C19.8138 17.6865 20.6584 18.3424 20.7176 20.3932C20.7196 20.4648 20.6932 20.5343 20.644 20.5864C20.5948 20.6385 20.527 20.669 20.4554 20.6711L20.4473 20.6714Z" fill="#12B880"/>
<path d="M20.4487 22.267C20.2373 22.2671 20.0308 22.2045 19.855 22.0871C19.6793 21.9697 19.5423 21.8029 19.4614 21.6077C19.3805 21.4125 19.3593 21.1976 19.4005 20.9904C19.4417 20.7831 19.5434 20.5927 19.6928 20.4433C19.8422 20.2938 20.0326 20.1921 20.2399 20.1508C20.4471 20.1096 20.6619 20.1307 20.8572 20.2116C21.0524 20.2924 21.2193 20.4294 21.3367 20.6051C21.4541 20.7808 21.5168 20.9873 21.5168 21.1987C21.5165 21.4819 21.4039 21.7534 21.2036 21.9537C21.0034 22.154 20.7319 22.2667 20.4487 22.267ZM20.4487 20.6708C20.3442 20.6708 20.2422 20.7017 20.1553 20.7596C20.0685 20.8176 20.0008 20.9 19.9608 20.9965C19.9208 21.0929 19.9103 21.1991 19.9307 21.3015C19.951 21.4039 20.0012 21.4979 20.0751 21.5718C20.1489 21.6456 20.2429 21.6959 20.3453 21.7163C20.4477 21.7367 20.5539 21.7263 20.6503 21.6863C20.7468 21.6464 20.8292 21.5787 20.8872 21.4919C20.9453 21.4051 20.9762 21.3031 20.9762 21.1987C20.9761 21.0588 20.9205 20.9246 20.8216 20.8257C20.7227 20.7267 20.5886 20.671 20.4487 20.6708Z" fill="#12B880"/>
<path d="M9.34648 20.6714C9.278 20.6715 9.21201 20.6457 9.16184 20.5991C9.11167 20.5525 9.08107 20.4886 9.0762 20.4203C8.92891 18.3459 10.0719 17.683 10.1205 17.6557C10.183 17.6204 10.2568 17.6115 10.3259 17.6307C10.395 17.6499 10.4535 17.6958 10.4888 17.7582C10.524 17.8207 10.533 17.8945 10.5138 17.9636C10.4945 18.0327 10.4486 18.0913 10.3862 18.1265C10.3451 18.1508 9.49431 18.6759 9.61512 20.3822C9.62018 20.4537 9.59662 20.5242 9.54963 20.5784C9.50265 20.6325 9.43608 20.6658 9.36458 20.6708L9.34648 20.6714Z" fill="#12B880"/>
<path d="M8.79972 22.8354C8.7579 22.8356 8.71661 22.8261 8.67909 22.8076C8.64157 22.7891 8.60885 22.7622 8.58351 22.7289C8.45158 22.5557 8.35439 22.3585 8.29729 22.1484C8.17183 21.739 8.21299 21.2967 8.41183 20.9176C8.61067 20.5384 8.95112 20.2531 9.35918 20.1235C9.55273 20.0691 9.75519 20.0538 9.95473 20.0785C10.1543 20.1031 10.3469 20.1673 10.5213 20.2673C10.8271 20.4439 11.0716 20.7097 11.2223 21.029C11.373 21.3483 11.4226 21.706 11.3646 22.0543C11.3528 22.125 11.3135 22.1882 11.2552 22.2299C11.1968 22.2716 11.1244 22.2884 11.0536 22.2766C10.9829 22.2649 10.9198 22.2255 10.8781 22.1672C10.8364 22.1089 10.8196 22.0364 10.8313 21.9657C10.871 21.727 10.8373 21.482 10.7347 21.2629C10.6321 21.0438 10.4655 20.861 10.2567 20.7386C10.1442 20.6737 10.0199 20.6318 9.89095 20.6154C9.76203 20.599 9.63115 20.6085 9.50594 20.6432C9.23512 20.7338 9.01094 20.9275 8.88202 21.1823C8.7531 21.4371 8.72984 21.7325 8.81729 22.0043C8.8564 22.1482 8.92303 22.2831 9.01351 22.4016C9.04394 22.4417 9.06259 22.4894 9.06736 22.5395C9.07213 22.5896 9.06283 22.64 9.0405 22.6851C9.01817 22.7302 8.9837 22.7681 8.94097 22.7947C8.89824 22.8212 8.84895 22.8353 8.79864 22.8354H8.79972Z" fill="#12B880"/>
<path d="M11.1016 22.2808C11.0911 22.2808 11.0803 22.2808 11.0695 22.2792L10.7649 22.2432C10.7296 22.2391 10.6955 22.228 10.6645 22.2106C10.6336 22.1932 10.6063 22.1699 10.5843 22.142C10.5624 22.1142 10.5461 22.0822 10.5365 22.048C10.5269 22.0138 10.5241 21.9781 10.5283 21.9428C10.5324 21.9076 10.5435 21.8735 10.5609 21.8425C10.5783 21.8115 10.6016 21.7843 10.6295 21.7623C10.6858 21.7179 10.7574 21.6978 10.8287 21.7062L11.1333 21.7424C11.2017 21.7506 11.2644 21.7845 11.3086 21.8373C11.3528 21.8902 11.3752 21.9579 11.3711 22.0267C11.3671 22.0954 11.337 22.1601 11.2869 22.2073C11.2368 22.2546 11.1705 22.2807 11.1016 22.2808Z" fill="#12B880"/>
<path d="M8.79972 22.8378C8.73626 22.8379 8.6748 22.8157 8.62609 22.775C8.57739 22.7343 8.54455 22.6778 8.53334 22.6153C8.52212 22.5529 8.53324 22.4885 8.56475 22.4334C8.59626 22.3783 8.64615 22.3361 8.70567 22.3141L9.02999 22.1943C9.06327 22.1819 9.09866 22.1762 9.13416 22.1774C9.16965 22.1787 9.20455 22.1869 9.23687 22.2017C9.26918 22.2164 9.29827 22.2374 9.32248 22.2633C9.34669 22.2893 9.36554 22.3198 9.37797 22.3531C9.39039 22.3864 9.39614 22.4218 9.39488 22.4573C9.39362 22.4928 9.38539 22.5277 9.37064 22.56C9.3559 22.5923 9.33493 22.6214 9.30895 22.6456C9.28296 22.6698 9.25246 22.6887 9.21918 22.7011L8.89486 22.8211C8.86441 22.8323 8.83218 22.838 8.79972 22.8378Z" fill="#12B880"/>
</svg>
