<svg width="30" height="30" viewBox="0 0 30 30" fill="none" xmlns="http://www.w3.org/2000/svg">
<rect width="30" height="30" rx="5" fill="#ECFEF4"/>
<path d="M22.9594 17.0625C22.7936 17.0625 22.6346 17.1283 22.5174 17.2456C22.4002 17.3628 22.3344 17.5217 22.3344 17.6875V19.8219C22.3344 20.325 22.1345 20.8074 21.7788 21.1632C21.4231 21.5189 20.9406 21.7188 20.4375 21.7188H9.56249C9.05941 21.7188 8.57693 21.5189 8.2212 21.1632C7.86547 20.8074 7.66562 20.325 7.66562 19.8219V17.6875C7.66562 17.5217 7.59977 17.3628 7.48256 17.2456C7.36535 17.1283 7.20638 17.0625 7.04062 17.0625C6.87486 17.0625 6.71589 17.1283 6.59868 17.2456C6.48147 17.3628 6.41562 17.5217 6.41562 17.6875V19.8219C6.41645 20.6562 6.74826 21.4562 7.33823 22.0461C7.92821 22.6361 8.72814 22.9679 9.56249 22.9688H20.4375C21.2718 22.9679 22.0718 22.6361 22.6618 22.0461C23.2517 21.4562 23.5835 20.6562 23.5844 19.8219V17.6875C23.5844 17.5217 23.5185 17.3628 23.4013 17.2456C23.2841 17.1283 23.1251 17.0625 22.9594 17.0625Z" fill="#12B880"/>
<path d="M14.5562 18.8875C14.6144 18.9461 14.6835 18.9926 14.7596 19.0243C14.8358 19.056 14.9175 19.0724 15 19.0724C15.0825 19.0724 15.1642 19.056 15.2404 19.0243C15.3165 18.9926 15.3856 18.9461 15.4437 18.8875L19 15.3313C19.0992 15.2119 19.1505 15.0598 19.1437 14.9047C19.137 14.7496 19.0728 14.6026 18.9636 14.4922C18.8544 14.3818 18.7081 14.3161 18.5531 14.3077C18.398 14.2993 18.2454 14.3489 18.125 14.4469L15.625 16.9469V7.65625C15.625 7.49049 15.5592 7.33152 15.4419 7.21431C15.3247 7.0971 15.1658 7.03125 15 7.03125C14.8342 7.03125 14.6753 7.0971 14.5581 7.21431C14.4408 7.33152 14.375 7.49049 14.375 7.65625V16.9375L11.875 14.4375C11.7577 14.3202 11.5987 14.2543 11.4328 14.2543C11.267 14.2543 11.1079 14.3202 10.9906 14.4375C10.8733 14.5548 10.8075 14.7138 10.8075 14.8797C10.8075 15.0455 10.8733 15.2046 10.9906 15.3219L14.5562 18.8875Z" fill="#12B880"/>
</svg>
