<svg width="30" height="30" viewBox="0 0 30 30" fill="none" xmlns="http://www.w3.org/2000/svg">
<rect width="30" height="30" rx="5" fill="#ECFEF4"/>
<path d="M22.4969 21.875H7.50306C6.46731 21.875 5.625 21.0327 5.625 19.9972V10.0028C5.625 8.96731 6.46731 8.125 7.50306 8.125H22.4969C23.5327 8.125 24.375 8.96731 24.375 10.0028V19.9972C24.375 21.0327 23.5327 21.875 22.4969 21.875ZM7.50306 9.375C7.157 9.375 6.875 9.65669 6.875 10.0028V19.9972C6.875 20.3433 7.157 20.625 7.50306 20.625H22.4969C22.843 20.625 23.125 20.3433 23.125 19.9972V10.0028C23.125 9.65669 22.843 9.375 22.4969 9.375H7.50306Z" fill="#12B880"/>
<path d="M15 16.3464C14.7374 16.3464 14.0024 16.3122 13.2733 15.8044L8.39175 12.3871C8.11063 12.1904 8.04125 11.7973 8.23794 11.5164C8.4345 11.2356 8.82738 11.1663 9.10831 11.3629L13.9899 14.7802C14.5941 15.2032 15.4059 15.2032 16.0101 14.7802L20.8917 11.3629C21.1731 11.1654 21.5643 11.2335 21.7621 11.5164C21.9598 11.7992 21.8914 12.189 21.6083 12.3871L16.7267 15.8044C16.5111 15.9546 15.8885 16.3464 15 16.3464Z" fill="#12B880"/>
</svg>
