<svg width="30" height="30" viewBox="0 0 30 30" fill="none" xmlns="http://www.w3.org/2000/svg">
<rect width="30" height="30" rx="5" fill="#ECFEF4"/>
<g clip-path="url(#clip0_1_138)">
<path d="M18.6109 8.32516H16.6469C16.7164 7.46184 16.4224 6.5745 15.7634 5.91551C14.5712 4.72332 12.6313 4.72332 11.439 5.91551L10.8295 6.525L10.22 5.91551C9.02777 4.72325 7.08785 4.72328 5.89562 5.91555C5.31809 6.49305 5 7.26098 5 8.07774C5 8.8945 5.31805 9.66239 5.89562 10.2399L7.3734 11.7177C6.88461 12.6369 6.62777 13.6632 6.62777 14.7143C6.62777 18.2373 9.49395 21.1034 13.017 21.1034H13.9718L18.1356 24.9786V21.1034H18.6109C22.1339 21.1034 25 18.2373 25 14.7143C25 11.1913 22.1338 8.32516 18.6109 8.32516ZM6.72496 6.74485C7.09246 6.37735 7.57508 6.19364 8.05781 6.19364C8.54043 6.19364 9.02324 6.37743 9.39066 6.74485L10.8295 8.18368L12.2683 6.74485C13.0033 6.00996 14.1991 6.00993 14.9341 6.74489C15.2901 7.1009 15.4861 7.57422 15.4861 8.07774C15.4861 8.58121 15.2901 9.05457 14.9341 9.41059L10.8295 13.5152L6.72496 9.41059C5.99004 8.67563 5.99004 7.47981 6.72496 6.74485ZM18.6109 19.9306H16.9627V22.2849L14.4332 19.9306H13.017C10.1407 19.9306 7.80066 17.5906 7.80066 14.7143C7.80066 13.9784 7.95477 13.2576 8.24996 12.5942L10.8296 15.1738L15.7635 10.2399C15.9877 10.0157 16.1696 9.76512 16.3095 9.49801H18.6109C21.4871 9.49801 23.8272 11.838 23.8272 14.7143C23.8272 17.5906 21.4871 19.9306 18.6109 19.9306Z" fill="#12B880"/>
<path d="M12.6152 14.3807H13.8548V15.5536H12.6152V14.3807Z" fill="#12B880"/>
<path d="M15.3521 14.3807H16.5917V15.5536H15.3521V14.3807Z" fill="#12B880"/>
<path d="M18.089 14.3807H19.3286V15.5536H18.089V14.3807Z" fill="#12B880"/>
</g>
<defs>
<clipPath id="clip0_1_138">
<rect width="20" height="20" fill="white" transform="translate(5 5)"/>
</clipPath>
</defs>
</svg>
