<svg width="30" height="30" viewBox="0 0 30 30" fill="none" xmlns="http://www.w3.org/2000/svg">
<rect width="30" height="30" rx="5" fill="#ECFEF4"/>
<path d="M13 14.4H9.0002C8.6262 14.4 8.2744 14.254 8.0098 13.9886C7.75 13.731 7.6 13.3702 7.6 13V9.00001C7.6 8.62601 7.7456 8.27421 8.0098 8.00941C8.2732 7.74541 8.625 7.60001 9.0002 7.60001H13C13.375 7.60001 13.7268 7.74541 13.9904 8.00941C14.2546 8.27441 14.4 8.62601 14.4 9.00001V13C14.4 13.37 14.2502 13.7308 13.989 13.99C13.7254 14.254 13.3738 14.4 13 14.4ZM9.0002 8.40001C8.839 8.40001 8.6884 8.46201 8.5762 8.57461C8.4624 8.68821 8.4 8.83941 8.4 9.00001V13C8.4 13.1582 8.4636 13.312 8.5746 13.422C8.6898 13.5374 8.8404 13.6 9.0002 13.6H13C13.1598 13.6 13.3104 13.5374 13.4242 13.4234C13.5364 13.3122 13.6 13.1582 13.6 13V9.00001C13.6 8.83941 13.5376 8.68821 13.424 8.57461C13.3118 8.46201 13.1612 8.40001 13 8.40001H9.0002Z" fill="#12B880"/>
<path d="M13 22.4H9.0002C8.6262 22.4 8.2744 22.254 8.0098 21.9886C7.75 21.731 7.6 21.3702 7.6 21V17C7.6 16.626 7.7456 16.2742 8.0098 16.0094C8.2732 15.7454 8.625 15.6 9.0002 15.6H13C13.375 15.6 13.7268 15.7454 13.9904 16.0094C14.2546 16.2744 14.4 16.626 14.4 17V21C14.4 21.37 14.2502 21.7308 13.989 21.99C13.7254 22.254 13.3738 22.4 13 22.4ZM9.0002 16.4C8.839 16.4 8.6884 16.462 8.5762 16.5746C8.4624 16.6882 8.4 16.8394 8.4 17V21C8.4 21.1582 8.4636 21.312 8.5746 21.422C8.6898 21.5374 8.8404 21.6 9.0002 21.6H13C13.1598 21.6 13.3104 21.5374 13.4242 21.4234C13.5364 21.3122 13.6 21.1582 13.6 21V17C13.6 16.8394 13.5376 16.6882 13.424 16.5746C13.3118 16.462 13.1612 16.4 13 16.4H9.0002Z" fill="#12B880"/>
<path d="M21 14.4H17.0002C16.6262 14.4 16.2744 14.254 16.0098 13.9886C15.75 13.731 15.6 13.3702 15.6 13V9.00001C15.6 8.62601 15.7456 8.27421 16.0098 8.00941C16.2732 7.74541 16.625 7.60001 17.0002 7.60001H21C21.375 7.60001 21.7268 7.74541 21.9904 8.00941C22.2546 8.27441 22.4 8.62601 22.4 9.00001V13C22.4 13.37 22.2502 13.7308 21.989 13.99C21.7254 14.254 21.3738 14.4 21 14.4ZM17.0002 8.40001C16.839 8.40001 16.6884 8.46201 16.5762 8.57461C16.4624 8.68821 16.4 8.83941 16.4 9.00001V13C16.4 13.1582 16.4636 13.312 16.5746 13.422C16.6898 13.5374 16.8404 13.6 17.0002 13.6H21C21.1598 13.6 21.3104 13.5374 21.4242 13.4234C21.5364 13.3122 21.6 13.1582 21.6 13V9.00001C21.6 8.83941 21.5376 8.68821 21.424 8.57461C21.3118 8.46201 21.1612 8.40001 21 8.40001H17.0002Z" fill="#12B880"/>
<path d="M21 22.4H17.0002C16.6262 22.4 16.2744 22.254 16.0098 21.9886C15.75 21.731 15.6 21.3702 15.6 21V17C15.6 16.626 15.7456 16.2742 16.0098 16.0094C16.2732 15.7454 16.625 15.6 17.0002 15.6H21C21.375 15.6 21.7268 15.7454 21.9904 16.0094C22.2546 16.2744 22.4 16.626 22.4 17V21C22.4 21.37 22.2502 21.7308 21.989 21.99C21.7254 22.254 21.3738 22.4 21 22.4ZM17.0002 16.4C16.839 16.4 16.6884 16.462 16.5762 16.5746C16.4624 16.6882 16.4 16.8394 16.4 17V21C16.4 21.1582 16.4636 21.312 16.5746 21.422C16.6898 21.5374 16.8404 21.6 17.0002 21.6H21C21.1598 21.6 21.3104 21.5374 21.4242 21.4234C21.5364 21.3122 21.6 21.1582 21.6 21V17C21.6 16.8394 21.5376 16.6882 21.424 16.5746C21.3118 16.462 21.1612 16.4 21 16.4H17.0002Z" fill="#12B880"/>
</svg>
