<svg width="30" height="30" viewBox="0 0 30 30" fill="none" xmlns="http://www.w3.org/2000/svg">
<rect width="30" height="30" rx="5" fill="#ECFEF4"/>
<g clip-path="url(#clip0_1_567)">
<path d="M20.4167 5.83333H19.1667C19.0562 5.83333 18.9502 5.87723 18.872 5.95537C18.7939 6.03351 18.75 6.13949 18.75 6.25C18.75 6.36051 18.7939 6.46649 18.872 6.54463C18.9502 6.62277 19.0562 6.66667 19.1667 6.66667H20.4167C20.7482 6.66667 21.0661 6.79836 21.3005 7.03278C21.535 7.2672 21.6667 7.58515 21.6667 7.91667V22.9167C21.6667 23.2482 21.535 23.5661 21.3005 23.8005C21.0661 24.035 20.7482 24.1667 20.4167 24.1667H9.58333C9.25181 24.1667 8.93387 24.035 8.69945 23.8005C8.46503 23.5661 8.33333 23.2482 8.33333 22.9167V7.91667C8.33333 7.58515 8.46503 7.2672 8.69945 7.03278C8.93387 6.79836 9.25181 6.66667 9.58333 6.66667H12.0833V7.08333C12.0833 7.19384 12.1272 7.29982 12.2054 7.37796C12.2835 7.4561 12.3895 7.5 12.5 7.5H17.5C17.6105 7.5 17.7165 7.4561 17.7946 7.37796C17.8728 7.29982 17.9167 7.19384 17.9167 7.08333V5.41667C17.9167 5.30616 17.8728 5.20018 17.7946 5.12204C17.7165 5.0439 17.6105 5 17.5 5H12.5C12.3895 5 12.2835 5.0439 12.2054 5.12204C12.1272 5.20018 12.0833 5.30616 12.0833 5.41667V5.83333H9.58333C9.031 5.83399 8.50148 6.0537 8.11092 6.44426C7.72037 6.83482 7.50066 7.36434 7.5 7.91667V22.9167C7.50066 23.469 7.72037 23.9985 8.11092 24.3891C8.50148 24.7796 9.031 24.9993 9.58333 25H20.4167C20.969 24.9993 21.4985 24.7796 21.8891 24.3891C22.2796 23.9985 22.4993 23.469 22.5 22.9167V7.91667C22.4993 7.36434 22.2796 6.83482 21.8891 6.44426C21.4985 6.0537 20.969 5.83399 20.4167 5.83333ZM12.9167 5.83333H17.0833V6.66667H12.9167V5.83333Z" fill="#12B880"/>
<path d="M15.8333 8.33334H14.1667C14.0562 8.33334 13.9502 8.37723 13.872 8.45537C13.7939 8.53351 13.75 8.6395 13.75 8.75V10H12.5C12.3895 10 12.2835 10.0439 12.2054 10.122C12.1272 10.2002 12.0833 10.3062 12.0833 10.4167V12.0833C12.0833 12.1938 12.1272 12.2998 12.2054 12.378C12.2835 12.4561 12.3895 12.5 12.5 12.5H13.75V13.75C13.75 13.8605 13.7939 13.9665 13.872 14.0446C13.9502 14.1228 14.0562 14.1667 14.1667 14.1667H15.8333C15.9439 14.1667 16.0498 14.1228 16.128 14.0446C16.2061 13.9665 16.25 13.8605 16.25 13.75V12.5H17.5C17.6105 12.5 17.7165 12.4561 17.7946 12.378C17.8728 12.2998 17.9167 12.1938 17.9167 12.0833V10.4167C17.9167 10.3062 17.8728 10.2002 17.7946 10.122C17.7165 10.0439 17.6105 10 17.5 10H16.25V8.75C16.25 8.6395 16.2061 8.53351 16.128 8.45537C16.0498 8.37723 15.9439 8.33334 15.8333 8.33334ZM17.0833 10.8333V11.6667H15.8333C15.7228 11.6667 15.6169 11.7106 15.5387 11.7887C15.4606 11.8668 15.4167 11.9728 15.4167 12.0833V13.3333H14.5833V12.0833C14.5833 11.9728 14.5394 11.8668 14.4613 11.7887C14.3832 11.7106 14.2772 11.6667 14.1667 11.6667H12.9167V10.8333H14.1667C14.2772 10.8333 14.3832 10.7894 14.4613 10.7113C14.5394 10.6332 14.5833 10.5272 14.5833 10.4167V9.16667H15.4167V10.4167C15.4167 10.5272 15.4606 10.6332 15.5387 10.7113C15.6169 10.7894 15.7228 10.8333 15.8333 10.8333H17.0833Z" fill="#12B880"/>
<path d="M20.4167 15H17.9167C17.8062 15 17.7002 15.0439 17.622 15.122C17.5439 15.2002 17.5 15.3062 17.5 15.4167C17.5 15.5272 17.5439 15.6332 17.622 15.7113C17.7002 15.7894 17.8062 15.8333 17.9167 15.8333H20.4167C20.5272 15.8333 20.6332 15.7894 20.7113 15.7113C20.7894 15.6332 20.8333 15.5272 20.8333 15.4167C20.8333 15.3062 20.7894 15.2002 20.7113 15.122C20.6332 15.0439 20.5272 15 20.4167 15Z" fill="#12B880"/>
<path d="M10.8333 15.4167C10.8333 15.5272 10.8772 15.6332 10.9554 15.7113C11.0335 15.7894 11.1395 15.8333 11.25 15.8333H16.25C16.3605 15.8333 16.4665 15.7894 16.5446 15.7113C16.6228 15.6332 16.6667 15.5272 16.6667 15.4167C16.6667 15.3062 16.6228 15.2002 16.5446 15.122C16.4665 15.0439 16.3605 15 16.25 15H11.25C11.1395 15 11.0335 15.0439 10.9554 15.122C10.8772 15.2002 10.8333 15.3062 10.8333 15.4167Z" fill="#12B880"/>
<path d="M15 17.0833C15 17.1938 15.0439 17.2998 15.122 17.378C15.2002 17.4561 15.3062 17.5 15.4167 17.5H19.5833C19.6938 17.5 19.7998 17.4561 19.878 17.378C19.9561 17.2998 20 17.1938 20 17.0833C20 16.9728 19.9561 16.8669 19.878 16.7887C19.7998 16.7106 19.6938 16.6667 19.5833 16.6667H15.4167C15.3062 16.6667 15.2002 16.7106 15.122 16.7887C15.0439 16.8669 15 16.9728 15 17.0833Z" fill="#12B880"/>
<path d="M10 17.0833C10 17.1938 10.0439 17.2998 10.122 17.378C10.2002 17.4561 10.3062 17.5 10.4167 17.5H13.75C13.8605 17.5 13.9665 17.4561 14.0446 17.378C14.1228 17.2998 14.1667 17.1938 14.1667 17.0833C14.1667 16.9728 14.1228 16.8669 14.0446 16.7887C13.9665 16.7106 13.8605 16.6667 13.75 16.6667H10.4167C10.3062 16.6667 10.2002 16.7106 10.122 16.7887C10.0439 16.8669 10 16.9728 10 17.0833Z" fill="#12B880"/>
<path d="M20.4167 18.3333H17.9167C17.8062 18.3333 17.7002 18.3772 17.622 18.4554C17.5439 18.5335 17.5 18.6395 17.5 18.75C17.5 18.8605 17.5439 18.9665 17.622 19.0446C17.7002 19.1228 17.8062 19.1667 17.9167 19.1667H20.4167C20.5272 19.1667 20.6332 19.1228 20.7113 19.0446C20.7894 18.9665 20.8333 18.8605 20.8333 18.75C20.8333 18.6395 20.7894 18.5335 20.7113 18.4554C20.6332 18.3772 20.5272 18.3333 20.4167 18.3333Z" fill="#12B880"/>
<path d="M10.4167 19.1667H16.25C16.3605 19.1667 16.4665 19.1228 16.5446 19.0446C16.6228 18.9665 16.6667 18.8605 16.6667 18.75C16.6667 18.6395 16.6228 18.5335 16.5446 18.4554C16.4665 18.3772 16.3605 18.3333 16.25 18.3333H10.4167C10.3062 18.3333 10.2002 18.3772 10.122 18.4554C10.0439 18.5335 10 18.6395 10 18.75C10 18.8605 10.0439 18.9665 10.122 19.0446C10.2002 19.1228 10.3062 19.1667 10.4167 19.1667Z" fill="#12B880"/>
<path d="M20 20.4167C20 20.3062 19.9561 20.2002 19.878 20.122C19.7998 20.0439 19.6938 20 19.5833 20H15.4167C15.3062 20 15.2002 20.0439 15.122 20.122C15.0439 20.2002 15 20.3062 15 20.4167C15 20.5272 15.0439 20.6332 15.122 20.7113C15.2002 20.7894 15.3062 20.8333 15.4167 20.8333H19.5833C19.6938 20.8333 19.7998 20.7894 19.878 20.7113C19.9561 20.6332 20 20.5272 20 20.4167Z" fill="#12B880"/>
<path d="M10.4167 20.8333H13.75C13.8605 20.8333 13.9665 20.7894 14.0446 20.7113C14.1228 20.6332 14.1667 20.5272 14.1667 20.4167C14.1667 20.3062 14.1228 20.2002 14.0446 20.122C13.9665 20.0439 13.8605 20 13.75 20H10.4167C10.3062 20 10.2002 20.0439 10.122 20.122C10.0439 20.2002 10 20.3062 10 20.4167C10 20.5272 10.0439 20.6332 10.122 20.7113C10.2002 20.7894 10.3062 20.8333 10.4167 20.8333Z" fill="#12B880"/>
<path d="M17.9167 22.5H20.4167C20.5272 22.5 20.6332 22.4561 20.7113 22.378C20.7894 22.2998 20.8333 22.1938 20.8333 22.0833C20.8333 21.9728 20.7894 21.8669 20.7113 21.7887C20.6332 21.7106 20.5272 21.6667 20.4167 21.6667H17.9167C17.8062 21.6667 17.7002 21.7106 17.622 21.7887C17.5439 21.8669 17.5 21.9728 17.5 22.0833C17.5 22.1938 17.5439 22.2998 17.622 22.378C17.7002 22.4561 17.8062 22.5 17.9167 22.5Z" fill="#12B880"/>
<path d="M10.4167 22.5H16.25C16.3605 22.5 16.4665 22.4561 16.5446 22.378C16.6228 22.2998 16.6667 22.1938 16.6667 22.0833C16.6667 21.9728 16.6228 21.8669 16.5446 21.7887C16.4665 21.7106 16.3605 21.6667 16.25 21.6667H10.4167C10.3062 21.6667 10.2002 21.7106 10.122 21.7887C10.0439 21.8669 10 21.9728 10 22.0833C10 22.1938 10.0439 22.2998 10.122 22.378C10.2002 22.4561 10.3062 22.5 10.4167 22.5Z" fill="#12B880"/>
</g>
<defs>
<clipPath id="clip0_1_567">
<rect width="20" height="20" fill="white" transform="translate(5 5)"/>
</clipPath>
</defs>
</svg>
