<svg width="30" height="30" viewBox="0 0 30 30" fill="none" xmlns="http://www.w3.org/2000/svg">
<rect width="30" height="30" rx="5" fill="#ECFEF4"/>
<path fill-rule="evenodd" clip-rule="evenodd" d="M11.3281 7.46094C9.81797 7.46094 8.59375 8.68516 8.59375 10.1953V20.8077C8.59375 21.7627 9.37082 22.5391 10.3321 22.5391C11.2934 22.5391 12.0704 21.7627 12.0704 20.8077V19.1324C12.0704 18.9166 12.2453 18.7418 12.4611 18.7418H20.138V10.1953C20.138 8.68516 18.9138 7.46094 17.4037 7.46094H11.3281ZM20.9193 18.7418V10.1953C20.9193 8.25369 19.3453 6.67969 17.4037 6.67969H11.3281C9.38648 6.67969 7.8125 8.25369 7.8125 10.1953V20.8077C7.8125 22.1966 8.94176 23.3203 10.3321 23.3203H19.7266C21.1073 23.3203 22.2266 22.201 22.2266 20.8203V19.1324C22.2266 18.9166 22.0517 18.7418 21.8359 18.7418H20.9193ZM12.158 22.5391H19.7266C20.6758 22.5391 21.4453 21.7696 21.4453 20.8203V19.523H12.8517V20.8077C12.8517 21.4791 12.5878 22.0886 12.158 22.5391Z" fill="#12B880"/>
<path d="M15.2734 15.5469C15.2734 15.3311 15.4483 15.1562 15.6641 15.1562H17.8125C18.0282 15.1562 18.2031 15.3311 18.2031 15.5469C18.2031 15.7626 18.0282 15.9375 17.8125 15.9375H15.6641C15.4483 15.9375 15.2734 15.7626 15.2734 15.5469Z" fill="#12B880"/>
<path d="M15.2734 12.0312C15.2734 11.8155 15.4483 11.6406 15.6641 11.6406H18.2422C18.4579 11.6406 18.6328 11.8155 18.6328 12.0312C18.6328 12.247 18.4579 12.4219 18.2422 12.4219H15.6641C15.4483 12.4219 15.2734 12.247 15.2734 12.0312Z" fill="#12B880"/>
<path fill-rule="evenodd" clip-rule="evenodd" d="M10.4183 12.3214C10.4183 11.4209 11.1483 10.691 12.0487 10.691H12.1623C13.1254 10.691 13.9062 11.4718 13.9062 12.435V12.5845C13.9062 12.8003 13.7314 12.9752 13.5156 12.9752C13.2999 12.9752 13.125 12.8003 13.125 12.5845V12.435C13.125 11.9033 12.694 11.4722 12.1623 11.4722H12.0487C11.5798 11.4722 11.1996 11.8524 11.1996 12.3214C11.1996 12.6643 11.4058 12.9735 11.7223 13.1053L12.9026 13.5969C13.5104 13.85 13.9062 14.4437 13.9062 15.102C13.9062 16.0024 13.1763 16.7324 12.2758 16.7324H12.1623C11.1991 16.7324 10.4183 15.9516 10.4183 14.9884V14.8389C10.4183 14.6231 10.5932 14.4482 10.8089 14.4482C11.0247 14.4482 11.1996 14.6231 11.1996 14.8389V14.9884C11.1996 15.5201 11.6306 15.9511 12.1623 15.9511H12.2758C12.7448 15.9511 13.125 15.571 13.125 15.102C13.125 14.7591 12.9188 14.4499 12.6023 14.3181L11.422 13.8265C10.8142 13.5734 10.4183 12.9797 10.4183 12.3214Z" fill="#12B880"/>
<path fill-rule="evenodd" clip-rule="evenodd" d="M12.1623 10.0781C12.378 10.0781 12.5529 10.253 12.5529 10.4688V10.9795C12.5529 11.1952 12.378 11.3701 12.1623 11.3701C11.9465 11.3701 11.7716 11.1952 11.7716 10.9795V10.4688C11.7716 10.253 11.9465 10.0781 12.1623 10.0781Z" fill="#12B880"/>
<path fill-rule="evenodd" clip-rule="evenodd" d="M12.1623 16.0532C12.378 16.0532 12.5529 16.2281 12.5529 16.4438V16.9545C12.5529 17.1703 12.378 17.3452 12.1623 17.3452C11.9465 17.3452 11.7716 17.1703 11.7716 16.9545V16.4438C11.7716 16.2281 11.9465 16.0532 12.1623 16.0532Z" fill="#12B880"/>
</svg>
