<svg width="30" height="30" viewBox="0 0 30 30" fill="none" xmlns="http://www.w3.org/2000/svg">
<rect width="30" height="30" rx="5" fill="#ECFEF4"/>
<path d="M14.991 6.66662C14.8815 6.6677 14.7732 6.69045 14.6724 6.73362C14.5716 6.77678 14.4802 6.8395 14.4036 6.91816C14.3269 6.99683 14.2664 7.08994 14.2256 7.1921C14.1848 7.29426 14.1645 7.40346 14.1658 7.51352V14.2119C14.1658 14.4341 14.2538 14.6472 14.4102 14.8043C14.5666 14.9614 14.7788 15.0496 15 15.0496C15.2212 15.0496 15.4334 14.9614 15.5898 14.8043C15.7463 14.6472 15.8342 14.4341 15.8342 14.2119V7.51352C15.8355 7.40194 15.8146 7.29121 15.7727 7.18787C15.7308 7.08453 15.6687 6.99063 15.5902 6.91172C15.5116 6.83282 15.4181 6.77053 15.3152 6.72843C15.2124 6.68633 15.1021 6.66532 14.991 6.66662ZM19.8532 8.34571C19.826 8.34493 19.7989 8.34547 19.7718 8.34735C19.607 8.3614 19.4501 8.42438 19.3211 8.52824C19.192 8.6321 19.0967 8.77214 19.0471 8.93059C18.9975 9.08905 18.996 9.25878 19.0428 9.41811C19.0895 9.57743 19.1823 9.71919 19.3095 9.82536C20.7532 11.0567 21.6665 12.8895 21.6665 14.9476C21.6665 18.6638 18.6956 21.6591 15.0041 21.6591C11.3125 21.6591 8.33512 18.6638 8.33512 14.9476C8.33513 12.9014 9.23685 11.0811 10.6661 9.84987C10.7493 9.77848 10.8178 9.69129 10.8675 9.59333C10.9173 9.49537 10.9473 9.38854 10.9559 9.27893C10.9645 9.16931 10.9516 9.05911 10.9178 8.95453C10.884 8.84994 10.83 8.75307 10.7589 8.66944C10.6878 8.58581 10.601 8.51705 10.5035 8.46711C10.406 8.41717 10.2996 8.38695 10.1905 8.3783C10.0813 8.36965 9.97157 8.38269 9.86745 8.41665C9.76333 8.45061 9.66688 8.50481 9.58362 8.57621C7.7995 10.1132 6.66668 12.404 6.66667 14.9476C6.66666 19.5671 10.4102 23.3333 15.0041 23.3333C19.5979 23.3333 23.3333 19.5671 23.3333 14.9476C23.3333 12.3892 22.1893 10.0889 20.3871 8.5517C20.2389 8.42193 20.0498 8.34898 19.8532 8.34571Z" fill="#12B880"/>
</svg>
