<svg width="30" height="30" viewBox="0 0 30 30" fill="none" xmlns="http://www.w3.org/2000/svg">
<rect width="30" height="30" rx="5" fill="#ECFEF4"/>
<path d="M15.8905 12.6156C17.139 12.6156 18.15 11.1215 18.4674 9.7157C18.4857 9.63485 18.471 9.55005 18.4268 9.47997C18.3825 9.40989 18.3122 9.36027 18.2314 9.34202C18.1505 9.32376 18.0657 9.33838 17.9956 9.38265C17.9255 9.42692 17.8759 9.49721 17.8577 9.57807C17.5958 10.7383 16.7691 11.9906 15.8905 11.9906C14.7986 11.9906 13.8406 10.0799 13.8406 8.92499C13.8407 8.42122 14.0262 7.93509 14.3618 7.55937C14.6974 7.18366 15.1596 6.94466 15.6602 6.88798C16.1608 6.83131 16.6647 6.96092 17.0758 7.25209C17.4869 7.54326 17.7764 7.9756 17.8891 8.46662C17.9085 8.54641 17.9586 8.61534 18.0285 8.6585C18.0983 8.70166 18.1824 8.71558 18.2624 8.69725C18.3425 8.67892 18.4121 8.62981 18.4562 8.56055C18.5004 8.49129 18.5154 8.40744 18.4982 8.32714C17.7302 5.24623 13.2841 5.75404 13.2156 8.92503C13.2156 10.3767 14.3643 12.6156 15.8905 12.6156Z" fill="#12B880"/>
<path d="M10.7184 15.9845C10.7571 15.9981 10.7982 16.0039 10.8392 16.0016C10.8802 15.9993 10.9204 15.989 10.9574 15.9711C10.9944 15.9532 11.0275 15.9282 11.0547 15.8974C11.082 15.8667 11.103 15.8309 11.1163 15.7921C11.5304 14.6189 12.3597 13.6379 13.4476 13.0343C13.7631 13.3668 14.1416 13.6333 14.5611 13.8181C14.9805 14.0029 15.4325 14.1025 15.8908 14.111C16.3488 14.1029 16.8006 14.0035 17.2196 13.8186C17.6387 13.6336 18.0166 13.3669 18.3313 13.034C18.7471 13.2635 19.1287 13.55 19.465 13.8852C20.1796 14.5962 20.6634 15.506 20.8533 16.496C20.8689 16.5774 20.9162 16.6493 20.9848 16.6958C21.0535 16.7423 21.1378 16.7597 21.2192 16.7441C21.3006 16.7284 21.3725 16.6811 21.419 16.6125C21.4655 16.5439 21.4829 16.4596 21.4673 16.3781C21.3009 15.5188 20.9378 14.7097 20.4066 14.014C19.8754 13.3184 19.1903 12.7551 18.4052 12.3683C18.3445 12.3386 18.2758 12.3294 18.2095 12.342C18.1431 12.3546 18.0826 12.3884 18.0371 12.4383C17.7723 12.7531 17.4446 13.009 17.0749 13.1894C16.7052 13.3699 16.3019 13.4709 15.8908 13.486C15.4791 13.4704 15.0752 13.3691 14.7049 13.1886C14.3345 13.0081 14.0059 12.7524 13.7399 12.4377C13.6942 12.3879 13.6335 12.3543 13.5671 12.3419C13.5006 12.3295 13.4319 12.339 13.3713 12.3689C12.0409 13.0311 11.0205 14.1852 10.5261 15.5867C10.5126 15.6254 10.5069 15.6664 10.5092 15.7074C10.5116 15.7484 10.522 15.7885 10.5399 15.8254C10.5577 15.8623 10.5827 15.8954 10.6133 15.9227C10.6439 15.95 10.6796 15.971 10.7184 15.9845Z" fill="#12B880"/>
<path d="M18.9197 19.7162C19.0088 19.1314 18.8667 18.5348 18.5236 18.053C18.1804 17.5711 17.6631 17.2418 17.0813 17.1348L15.3015 16.8002C13.1128 15.0603 11.7331 16.1726 11.6889 16.2102L9.72146 17.6684C9.52445 17.5379 9.29273 17.4697 9.05644 17.4727C8.82016 17.4757 8.59024 17.5498 8.39662 17.6852L6.58812 18.9555C6.52212 19.0039 6.47772 19.0762 6.46445 19.157C6.45119 19.2378 6.47012 19.3205 6.51719 19.3875C6.56425 19.4544 6.6357 19.5003 6.71618 19.5151C6.79666 19.53 6.87976 19.5127 6.94764 19.467L8.75579 18.1967C8.81548 18.1548 8.88291 18.1252 8.95415 18.1097C9.02539 18.0941 9.09902 18.0929 9.17074 18.106C9.24246 18.1192 9.31085 18.1465 9.3719 18.1864C9.43295 18.2263 9.48546 18.2779 9.52636 18.3383L11.4972 21.2503C11.578 21.3704 11.6083 21.5176 11.5815 21.6599C11.5546 21.8022 11.4728 21.9282 11.3538 22.0106L9.65301 23.1799C9.58493 23.227 9.53829 23.2991 9.52332 23.3805C9.50834 23.4618 9.52624 23.5458 9.57311 23.614C9.61997 23.6822 9.69197 23.7291 9.77331 23.7442C9.85465 23.7594 9.93869 23.7417 10.007 23.6951L11.7078 22.5256C11.8776 22.4077 12.0132 22.2468 12.1008 22.0595C12.1884 21.8722 12.2248 21.665 12.2065 21.4591C13.4185 21.4752 14.9815 22.0404 15.6406 22.3027C16.2426 22.5172 16.8965 22.5386 17.5113 22.3638C17.5919 22.3483 17.6632 22.3016 17.7097 22.2339C17.7562 22.1662 17.7741 22.0829 17.7597 22.0021C17.7452 21.9212 17.6996 21.8493 17.6325 21.8019C17.5655 21.7544 17.4825 21.7353 17.4014 21.7486C16.901 21.8974 16.3668 21.8882 15.8719 21.7221C14.9606 21.3595 13.2815 20.782 11.9725 20.8374L10.1428 18.134L12.0727 16.703C12.1167 16.6682 13.1644 15.8656 14.9692 17.3352C15.0096 17.3681 15.0577 17.3904 15.1089 17.4L16.9666 17.7492C17.38 17.8257 17.7489 18.0568 17.9981 18.3955C18.2473 18.7342 18.3581 19.1551 18.3081 19.5726L14.9253 19.016C14.8848 19.0093 14.8433 19.0107 14.8034 19.02C14.7634 19.0294 14.7257 19.0465 14.6924 19.0705C14.625 19.1188 14.5796 19.1919 14.5662 19.2737C14.5596 19.3142 14.5609 19.3556 14.5703 19.3955C14.5796 19.4355 14.5968 19.4732 14.6207 19.5066C14.669 19.5739 14.7421 19.6193 14.8239 19.6327L18.2471 20.1956C18.3229 20.21 18.4008 20.2088 18.4762 20.1923C18.5516 20.1758 18.6228 20.1442 18.6857 20.0994C18.7485 20.0546 18.8016 19.9975 18.8418 19.9317C18.8821 19.8658 18.9085 19.7925 18.9197 19.7162Z" fill="#12B880"/>
<path d="M23.3795 18.334C23.1096 17.928 22.6961 17.639 22.2221 17.525C21.7481 17.411 21.2484 17.4803 20.8234 17.7191L19.5673 18.4347C19.4964 18.4764 19.4449 18.5442 19.4237 18.6236C19.4025 18.703 19.4135 18.7875 19.4542 18.8588C19.4948 18.9302 19.562 18.9827 19.6411 19.0049C19.7202 19.0271 19.8048 19.0173 19.8767 18.9776L21.1319 18.2626C21.742 17.9004 22.7404 18.1499 22.9187 18.8812C22.9189 18.9374 22.9061 18.9928 22.8811 19.0432C22.8561 19.0935 22.8198 19.1374 22.775 19.1713L20.452 20.9627C20.1983 21.1601 19.9008 21.2936 19.5847 21.3519L18.6411 21.5237C18.5599 21.5389 18.4881 21.5857 18.4413 21.6537C18.3944 21.7217 18.3764 21.8055 18.3912 21.8867C18.406 21.9679 18.4523 22.04 18.52 22.0873C18.5878 22.1345 18.6714 22.1529 18.7527 22.1386C19.4261 22.0132 20.2965 21.9265 20.8343 21.4569L23.1534 19.6687C23.3521 19.5155 23.4858 19.293 23.5277 19.0456C23.5697 18.7982 23.5167 18.5441 23.3795 18.334Z" fill="#12B880"/>
<path d="M18.0884 16.2742C18.1294 16.2742 18.1701 16.2662 18.208 16.2505C18.2459 16.2348 18.2804 16.2117 18.3094 16.1827C18.3384 16.1537 18.3614 16.1193 18.3771 16.0813C18.3928 16.0434 18.4009 16.0028 18.4009 15.9617V15.7093H18.6533C18.7361 15.7093 18.8156 15.6764 18.8742 15.6178C18.9328 15.5592 18.9658 15.4797 18.9658 15.3968C18.9658 15.314 18.9328 15.2345 18.8742 15.1759C18.8156 15.1173 18.7361 15.0843 18.6533 15.0843H18.4009V14.832C18.4009 14.7491 18.368 14.6696 18.3093 14.611C18.2507 14.5524 18.1713 14.5195 18.0884 14.5195C18.0055 14.5195 17.926 14.5524 17.8674 14.611C17.8088 14.6696 17.7759 14.7491 17.7759 14.832V15.0843H17.5235C17.4406 15.0843 17.3611 15.1173 17.3025 15.1759C17.2439 15.2345 17.211 15.314 17.211 15.3968C17.211 15.4797 17.2439 15.5592 17.3025 15.6178C17.3611 15.6764 17.4406 15.7093 17.5235 15.7093H17.7759V15.9617C17.7759 16.0028 17.7839 16.0434 17.7996 16.0813C17.8153 16.1192 17.8384 16.1537 17.8674 16.1827C17.8964 16.2117 17.9309 16.2348 17.9688 16.2505C18.0067 16.2662 18.0473 16.2742 18.0884 16.2742Z" fill="#12B880"/>
</svg>
