<svg width="30" height="30" viewBox="0 0 30 30" fill="none" xmlns="http://www.w3.org/2000/svg">
<rect width="30" height="30" rx="5" fill="#ECFEF4"/>
<g clip-path="url(#clip0_1_141)">
<path d="M15.3226 6.29033H14.6774V6.93549H14.0323V7.58065H14.6774V8.22581H15.3226V7.58065H15.9677V6.93549H15.3226V6.29033Z" fill="#12B880"/>
<path d="M15.9677 11.4516V10.1613H16.6129C16.9687 10.1613 17.2581 9.87194 17.2581 9.51613V9.19355H19.0209L19.9242 10.5481L21.1539 7.16639L21.8841 8.87097H25V8.22581H22.3094L21.1045 5.41425L19.7535 9.12928L19.3662 8.54839H17.2581V5.64516C17.2581 5.28935 16.9687 5 16.6129 5H13.3871C13.0313 5 12.7419 5.28935 12.7419 5.64516V7.25806H9.94865L9.21812 8.96264L7.98875 5.5809L7.08543 6.93548H5V7.58065H7.4307L7.8177 6.99975L9.16866 10.7148L10.3739 7.90323H12.7419V9.51613C12.7419 9.87194 13.0313 10.1613 13.3871 10.1613H14.0323V11.4516H14.6774V13.3871H13.0645C12.5164 13.3871 11.9678 13.5164 11.4778 13.7617L11.2539 13.8735C11.0478 13.2203 10.4432 12.7419 9.72263 12.7419H8.54839C8.18391 12.7419 7.85093 12.8681 7.58065 13.0729V11.7742C7.58065 11.2407 7.14639 10.8065 6.6129 10.8065C6.07942 10.8065 5.64516 11.2407 5.64516 11.7742V16.6129C5.28935 16.6129 5 16.9023 5 17.2581V17.9032C5 18.259 5.28935 18.5484 5.64516 18.5484H6.6129V22.1004C6.20873 22.4046 5.96774 22.878 5.96774 23.3871C5.96774 24.2764 6.69134 25 7.58065 25C8.46995 25 9.19355 24.2764 9.19355 23.3871C9.19355 22.8783 8.95004 22.4009 8.54839 22.0984V18.5484H21.4516V22.0984C21.05 22.4006 20.8065 22.8783 20.8065 23.3871C20.8065 24.2764 21.5301 25 22.4194 25C23.3087 25 24.0323 24.2764 24.0323 23.3871C24.0323 22.8783 23.7887 22.4009 23.3871 22.0984V18.5484H24.3548C24.7107 18.5484 25 18.259 25 17.9032V17.2581C25 16.9023 24.7107 16.6129 24.3548 16.6129H24.3385C24.1748 14.8071 22.6542 13.3871 20.8065 13.3871H15.3226V11.4516H15.9677ZM8.54839 13.3871H9.72263C10.2561 13.3871 10.6904 13.8214 10.6904 14.3548C10.6904 14.8883 10.2561 15.3226 9.72263 15.3226H8.54839C8.0149 15.3226 7.58065 14.8883 7.58065 14.3548C7.58065 13.8214 8.0149 13.3871 8.54839 13.3871ZM9.83871 15.9677C10.2586 15.9677 10.6135 16.2383 10.7471 16.6129H7.64003C7.7736 16.2383 8.12847 15.9677 8.54839 15.9677H9.83871ZM7.58065 15.6368C7.58427 15.6396 7.5871 15.6426 7.59057 15.6452C7.5871 15.6477 7.58427 15.6507 7.58065 15.6535V15.6368ZM6.29032 11.7742C6.29032 11.5965 6.43492 11.4516 6.6129 11.4516C6.79089 11.4516 6.93548 11.5965 6.93548 11.7742V16.6129H6.29032V11.7742ZM7.58065 24.3548C7.04716 24.3548 6.6129 23.9206 6.6129 23.3871C6.6129 23.2761 6.6381 23.1707 6.67386 23.0691C6.80837 23.4413 7.1623 23.7097 7.58065 23.7097C7.99868 23.7097 8.3526 23.4416 8.48743 23.0694C8.52319 23.171 8.54839 23.2765 8.54839 23.3871C8.54839 23.9206 8.11413 24.3548 7.58065 24.3548ZM7.90323 22.7419C7.90323 22.9196 7.75863 23.0645 7.58065 23.0645C7.40266 23.0645 7.25806 22.9196 7.25806 22.7419V18.5484H7.90323V22.7419ZM22.4194 24.3548C21.8859 24.3548 21.4516 23.9206 21.4516 23.3871C21.4516 23.2765 21.4768 23.171 21.5126 23.0694C21.6474 23.4416 22.0013 23.7097 22.4194 23.7097C22.8374 23.7097 23.1913 23.4416 23.3261 23.0694C23.3619 23.171 23.3871 23.2765 23.3871 23.3871C23.3871 23.9206 22.9528 24.3548 22.4194 24.3548ZM22.7419 22.7419C22.7419 22.9196 22.5973 23.0645 22.4194 23.0645C22.2414 23.0645 22.0968 22.9196 22.0968 22.7419V18.5484H22.7419V22.7419ZM23.6906 16.6129H22.4194V17.2581H24.3548V17.9032H5.64516V17.2581H21.7742V16.6129H11.419C11.3332 16.1919 11.0829 15.8301 10.7381 15.5974C11.0478 15.3438 11.2593 14.9806 11.3143 14.5648L11.7665 14.3388C12.167 14.1384 12.6158 14.0323 13.0645 14.0323H20.8065C22.2984 14.0323 23.5296 15.1635 23.6906 16.6129ZM13.3871 5.64516H16.6129L16.6132 9.51613H13.3871V5.64516ZM15.3226 10.1613V10.8065H14.6774V10.1613H15.3226Z" fill="#12B880"/>
</g>
<defs>
<clipPath id="clip0_1_141">
<rect width="20" height="20" fill="white" transform="translate(5 5)"/>
</clipPath>
</defs>
</svg>
