<svg width="30" height="30" viewBox="0 0 30 30" fill="none" xmlns="http://www.w3.org/2000/svg">
<rect width="30" height="30" rx="5" fill="#ECFEF4"/>
<g clip-path="url(#clip0_1_573)">
<path d="M23.6646 8.32916C22.8605 8.40672 22.2592 9.10214 22.2985 9.90906L22.3589 12.3831C21.6974 12.4489 21.1184 12.8557 20.8323 13.4557L19.9281 15.354C19.7876 15.6484 19.5825 15.9074 19.3283 16.1118L19.1404 16.2624C18.1847 17.0251 17.6521 18.1993 17.7082 19.4206L17.3388 19.2448C17.1714 19.165 16.9708 19.2361 16.8911 19.4036L15.8999 21.4849C15.8202 21.6525 15.8912 21.8528 16.0586 21.9325L20.6267 24.108C20.707 24.1464 20.7993 24.1513 20.8833 24.1214C20.9672 24.0916 21.0359 24.0298 21.0741 23.9493L22.0655 21.8676C22.1452 21.7002 22.0742 21.4998 21.9068 21.4201L21.7118 21.3273L21.6631 20.6762C21.6436 20.4218 21.7238 20.1698 21.8866 19.9734L24.2521 17.1109C24.2569 17.1051 24.2615 17.0992 24.2659 17.0931C24.7536 16.4123 25.0107 15.5934 24.9997 14.7562C24.9994 14.7403 24.9979 14.7244 24.9954 14.7086L24.029 8.61087C24.0011 8.43542 23.8414 8.31194 23.6646 8.32916ZM20.6122 23.3572L16.6508 21.4705L17.3532 19.9953L21.3147 21.882L20.6122 23.3572ZM23.7271 16.6919L21.369 19.5456C21.0953 19.8755 20.9607 20.2989 20.9933 20.7262L21.0135 20.9946L18.4169 19.7581C18.2325 18.6335 18.6698 17.497 19.5605 16.7863L19.7484 16.6357C20.0816 16.3679 20.3504 16.0285 20.5347 15.6428L21.4387 13.7444C21.6751 13.2499 22.2105 12.9715 22.7513 13.062L21.4298 15.8369C21.3513 16.0042 21.4224 16.2034 21.5894 16.2829C21.7561 16.3623 21.9558 16.2921 22.0362 16.1257L23.5221 13.0054C23.6018 12.8378 23.5308 12.6374 23.3632 12.5578C23.2568 12.5072 23.146 12.4667 23.032 12.4366L22.9699 9.88857C22.9699 9.88561 22.9699 9.88266 22.9695 9.87987C22.9523 9.5493 23.1304 9.23939 23.4244 9.08755L24.3284 14.7895C24.3323 15.4711 24.1221 16.1365 23.7271 16.6919Z" fill="#12B880"/>
<path d="M5.7479 17.1109L8.11341 19.9734C8.27623 20.1698 8.35642 20.4218 8.33691 20.6762L8.2882 21.3273L8.09324 21.4201C7.92582 21.4998 7.85482 21.7002 7.93451 21.8676L8.9259 23.9493C8.96411 24.0298 9.03282 24.0916 9.11677 24.1214C9.20073 24.1513 9.29304 24.1464 9.37356 24.108L13.9414 21.9325C14.1088 21.8528 14.1798 21.6525 14.1001 21.4849L13.1087 19.4034C13.0291 19.236 12.8287 19.1648 12.6613 19.2447L12.2918 19.4204C12.3477 18.1992 11.8153 17.0249 10.8597 16.2623L10.6717 16.1116C10.4174 15.9073 10.2125 15.6484 10.0718 15.354L9.1676 13.4557C8.88147 12.8557 8.30247 12.4489 7.64099 12.3831L7.7015 9.90906C7.74086 9.1023 7.13956 8.40672 6.33542 8.32916C6.15866 8.31194 5.99895 8.43542 5.97107 8.61087L5.0046 14.7086C5.00198 14.7244 5.00067 14.7403 5.00034 14.7562C4.98935 15.5934 5.24646 16.4123 5.73413 17.0931C5.73855 17.0992 5.74315 17.1051 5.7479 17.1109ZM13.3493 21.4706L9.38782 23.3572L8.68535 21.882L12.6468 19.9953L13.3493 21.4706ZM6.57565 9.08738C6.86966 9.23922 7.04773 9.5493 7.03051 9.87971C7.03051 9.88266 7.03035 9.88561 7.03019 9.88857L6.96804 12.4366C6.85408 12.4666 6.74307 12.5071 6.63665 12.5578C6.46923 12.6374 6.39806 12.838 6.47792 13.0054L7.96386 16.1259C8.04421 16.2923 8.24393 16.3625 8.41069 16.2829C8.57746 16.2036 8.64879 16.0043 8.57024 15.8371L7.24877 13.062C7.78956 12.9713 8.3251 13.2497 8.56139 13.7444L9.46555 15.6428C9.64985 16.0285 9.91845 16.3679 10.2516 16.6357L10.4396 16.7863C11.3303 17.497 11.7676 18.6335 11.5831 19.7581L8.98657 20.9946L9.00674 20.7262C9.03937 20.2989 8.90475 19.8755 8.63124 19.5456L6.27295 16.6919C5.8781 16.1365 5.66772 15.4711 5.67182 14.7895L6.57565 9.08738Z" fill="#12B880"/>
<path d="M19.005 13.1782C19.1442 13.1338 19.2389 13.0047 19.2398 12.8585V7.53584C19.2389 7.38974 19.1442 7.26069 19.005 7.21626L15.1042 5.9584C15.0369 5.93676 14.9646 5.93676 14.8974 5.9584L10.9954 7.21609C10.856 7.26053 10.7613 7.38958 10.7603 7.53584V12.8585C10.7611 13.0047 10.8559 13.1336 10.9951 13.1782L14.8959 14.4359C14.9294 14.4466 14.9644 14.452 14.9995 14.452C15.035 14.452 15.0702 14.4466 15.1038 14.4359L19.005 13.1782ZM15.3358 13.6552V9.03769L18.5681 7.99661V12.6142L15.3358 13.6552ZM15 6.63086L17.8058 7.53584L15 8.4405L12.1942 7.53584L15 6.63086ZM11.4319 7.99678L14.6642 9.03786V13.6554L11.4319 12.6143V7.99678Z" fill="#12B880"/>
</g>
<defs>
<clipPath id="clip0_1_573">
<rect width="20" height="20" fill="white" transform="translate(5 5)"/>
</clipPath>
</defs>
</svg>
