<svg width="30" height="30" viewBox="0 0 30 30" fill="none" xmlns="http://www.w3.org/2000/svg">
<rect width="30" height="30" rx="5" fill="#ECFEF4"/>
<g clip-path="url(#clip0_1_293)">
<path d="M20.287 15.1697C21.6403 13.5783 22.3333 11.8613 22.3333 10.06C22.3333 7.27 20.1667 5 17.5 5C16.7503 5.00206 16.0119 5.18216 15.3454 5.52547C14.679 5.86878 14.1036 6.36547 13.6667 6.97467C13.2297 6.36547 12.6544 5.86878 11.9879 5.52547C11.3215 5.18216 10.583 5.00206 9.83333 5C7.16833 5 5 7.27 5 10.06C5 11.7407 5.742 15.95 12.4827 19.1753L10.6393 22.0553C10.4525 22.3469 10.3477 22.6834 10.336 23.0295C10.3243 23.3756 10.406 23.7185 10.5727 24.022C10.7312 24.3188 10.9677 24.5667 11.2567 24.739C11.5457 24.9114 11.8762 25.0016 12.2127 25H23.1207C23.4574 25.0015 23.7881 24.9111 24.0771 24.7384C24.3662 24.5658 24.6027 24.3175 24.761 24.0203C24.9277 23.7168 25.0094 23.3739 24.9977 23.0278C24.9859 22.6818 24.8812 22.3452 24.6943 22.0537L20.287 15.1697ZM5.66667 10.06C5.66667 7.63733 7.53567 5.66667 9.83333 5.66667C10.5553 5.67165 11.2632 5.86677 11.8858 6.23239C12.5084 6.59801 13.0236 7.12122 13.3797 7.74933C13.4114 7.79622 13.4542 7.83461 13.5042 7.86114C13.5543 7.88768 13.61 7.90156 13.6667 7.90156C13.7233 7.90156 13.7791 7.88768 13.8291 7.86114C13.8791 7.83461 13.9219 7.79622 13.9537 7.74933C14.3097 7.12122 14.8249 6.59801 15.4475 6.23239C16.0701 5.86677 16.778 5.67165 17.5 5.66667C19.7977 5.66667 21.6667 7.63733 21.6667 10.06C21.6667 11.6397 21.0713 13.1577 19.91 14.5803L19.2403 13.5333C19.0726 13.2677 18.8403 13.0489 18.5652 12.8972C18.29 12.7456 17.981 12.666 17.6668 12.666C17.3527 12.666 17.0436 12.7456 16.7685 12.8972C16.4933 13.0489 16.2611 13.2677 16.0933 13.5333L12.845 18.6093C6.37667 15.543 5.66667 11.6197 5.66667 10.06ZM24.176 23.7C24.0745 23.8917 23.9225 24.052 23.7365 24.1636C23.5505 24.2752 23.3376 24.3339 23.1207 24.3333H12.2127C11.9958 24.3339 11.7828 24.2752 11.5968 24.1636C11.4108 24.052 11.2589 23.8917 11.1573 23.7C11.0468 23.5021 10.9924 23.2777 11.0001 23.0511C11.0077 22.8246 11.0771 22.6044 11.2007 22.4143L16.655 13.8933C16.7624 13.7219 16.9116 13.5806 17.0886 13.4826C17.2656 13.3846 17.4645 13.3332 17.6668 13.3332C17.8691 13.3332 18.0681 13.3846 18.2451 13.4826C18.4221 13.5806 18.5713 13.7219 18.6787 13.8933L24.1333 22.4147C24.2568 22.6047 24.326 22.8249 24.3335 23.0514C24.341 23.2779 24.2865 23.5022 24.176 23.7Z" fill="#12B880"/>
<path d="M17.6667 15C17.4014 15 17.1471 15.1054 16.9596 15.2929C16.772 15.4804 16.6667 15.7348 16.6667 16V20C16.6667 20.2652 16.772 20.5196 16.9596 20.7071C17.1471 20.8946 17.4014 21 17.6667 21C17.9319 21 18.1862 20.8946 18.3738 20.7071C18.5613 20.5196 18.6667 20.2652 18.6667 20V16C18.6667 15.7348 18.5613 15.4804 18.3738 15.2929C18.1862 15.1054 17.9319 15 17.6667 15ZM18 20C18 20.0884 17.9649 20.1732 17.9024 20.2357C17.8399 20.2982 17.7551 20.3333 17.6667 20.3333C17.5783 20.3333 17.4935 20.2982 17.431 20.2357C17.3684 20.1732 17.3333 20.0884 17.3333 20V16C17.3333 15.9116 17.3684 15.8268 17.431 15.7643C17.4935 15.7018 17.5783 15.6667 17.6667 15.6667C17.7551 15.6667 17.8399 15.7018 17.9024 15.7643C17.9649 15.8268 18 15.9116 18 16V20Z" fill="#12B880"/>
<path d="M17.6667 21.6667C17.4689 21.6667 17.2755 21.7253 17.1111 21.8352C16.9466 21.9451 16.8185 22.1013 16.7428 22.284C16.6671 22.4667 16.6473 22.6678 16.6859 22.8618C16.7245 23.0558 16.8197 23.2339 16.9596 23.3738C17.0994 23.5136 17.2776 23.6089 17.4716 23.6475C17.6656 23.6861 17.8666 23.6663 18.0493 23.5906C18.2321 23.5149 18.3883 23.3867 18.4981 23.2223C18.608 23.0578 18.6667 22.8645 18.6667 22.6667C18.6667 22.4015 18.5613 22.1471 18.3738 21.9596C18.1862 21.772 17.9319 21.6667 17.6667 21.6667ZM17.6667 23C17.6007 23 17.5363 22.9805 17.4815 22.9438C17.4267 22.9072 17.3839 22.8552 17.3587 22.7942C17.3335 22.7333 17.3269 22.6663 17.3397 22.6017C17.3526 22.537 17.3843 22.4776 17.431 22.431C17.4776 22.3844 17.537 22.3526 17.6016 22.3398C17.6663 22.3269 17.7333 22.3335 17.7942 22.3587C17.8551 22.384 17.9072 22.4267 17.9438 22.4815C17.9804 22.5363 18 22.6008 18 22.6667C18 22.7551 17.9649 22.8399 17.9024 22.9024C17.8399 22.9649 17.7551 23 17.6667 23Z" fill="#12B880"/>
<path d="M18.6667 12C18.7551 12 18.8399 11.9649 18.9024 11.9024C18.9649 11.8399 19 11.7551 19 11.6667C19 11.5783 18.9649 11.4935 18.9024 11.431C18.8399 11.3685 18.7551 11.3333 18.6667 11.3333H16.553L15.8413 9.67302C15.7989 9.57376 15.7279 9.48934 15.6374 9.43045C15.547 9.37156 15.441 9.34085 15.3331 9.34221C15.2252 9.34356 15.12 9.37693 15.0311 9.43807C14.9421 9.49922 14.8733 9.58539 14.8333 9.68568L13.3393 13.4207L12.134 10.2873C12.0973 10.192 12.0345 10.1088 11.9528 10.0473C11.8712 9.98588 11.7739 9.9486 11.672 9.93974C11.5702 9.93088 11.4679 9.9508 11.3769 9.99723C11.2858 10.0437 11.2096 10.1147 11.157 10.2023L10.478 11.3333H9.33333C9.24493 11.3333 9.16014 11.3685 9.09763 11.431C9.03512 11.4935 9 11.5783 9 11.6667C9 11.7551 9.03512 11.8399 9.09763 11.9024C9.16014 11.9649 9.24493 12 9.33333 12H10.6667C10.7242 12 10.7807 11.9851 10.8308 11.9568C10.8808 11.9285 10.9227 11.8877 10.9523 11.8383L11.6 10.7573L12.8267 13.9483C12.8659 14.051 12.9353 14.1394 13.0257 14.2018C13.1162 14.2642 13.2234 14.2978 13.3333 14.298H13.337C13.4461 14.2983 13.5528 14.2657 13.6432 14.2045C13.7335 14.1432 13.8032 14.0562 13.8433 13.9547L15.3433 10.2043L16.0267 11.798C16.0524 11.858 16.0952 11.9091 16.1497 11.9451C16.2042 11.981 16.2681 12.0001 16.3333 12H18.6667Z" fill="#12B880"/>
</g>
<defs>
<clipPath id="clip0_1_293">
<rect width="20" height="20" fill="white" transform="translate(5 5)"/>
</clipPath>
</defs>
</svg>
