<svg width="30" height="30" viewBox="0 0 30 30" fill="none" xmlns="http://www.w3.org/2000/svg">
<rect width="30" height="30" rx="5" fill="#ECFEF4"/>
<g clip-path="url(#clip0_1_139)">
<path d="M17.5187 13.8025C17.5187 13.4919 17.2669 13.24 16.9562 13.24H10.7687C10.4581 13.24 10.2062 13.4919 10.2062 13.8025C10.2062 14.1131 10.4581 14.365 10.7687 14.365H16.9562C17.2669 14.365 17.5187 14.1131 17.5187 13.8025Z" fill="#12B880"/>
<path d="M10.7675 16.0806C10.4569 16.0806 10.205 16.3325 10.205 16.6431C10.205 16.9538 10.4569 17.2056 10.7675 17.2056H14.0481C14.3587 17.2056 14.6106 16.9538 14.6106 16.6431C14.6106 16.3325 14.3587 16.0806 14.0481 16.0806H10.7675Z" fill="#12B880"/>
<path d="M21.225 13.8338C20.9144 13.8338 20.6625 14.0856 20.6625 14.3963V18.9456C20.6625 19.7969 19.97 20.4894 19.1187 20.4894H15.3562C15.2344 20.4894 15.1156 20.5288 15.0181 20.6025L11.7694 23.0456C11.6869 23.1075 11.6094 23.0819 11.5706 23.0606C11.5312 23.0406 11.4662 22.9913 11.4688 22.8906L11.5312 21.0719C11.5362 20.9194 11.4794 20.7713 11.3737 20.6619C11.2681 20.5519 11.1219 20.49 10.9694 20.49H8.35625C7.505 20.49 6.8125 19.7981 6.8125 18.9463V11.5088C6.8125 10.6544 7.505 9.95938 8.35625 9.95938H15.2875C15.5981 9.95938 15.85 9.7075 15.85 9.39688C15.85 9.08625 15.5981 8.83438 15.2875 8.83438H8.35625C6.885 8.83438 5.6875 10.0344 5.6875 11.5094V18.9463C5.6875 20.4175 6.885 21.6156 8.35625 21.6156H10.3869L10.3444 22.8544C10.3294 23.3631 10.6 23.8256 11.0519 24.06C11.245 24.1606 11.4531 24.21 11.6594 24.21C11.9362 24.21 12.2106 24.1206 12.4444 23.9463L15.5438 21.6156H19.1181C20.5894 21.6156 21.7869 20.4181 21.7869 18.9463V14.3969C21.7875 14.0856 21.5356 13.8338 21.225 13.8338Z" fill="#12B880"/>
<path d="M24.2656 8.47563C24.1637 8.16313 23.9131 7.92938 23.595 7.85063L22.1575 7.4925L21.3725 6.23625C21.0244 5.6775 20.1156 5.67875 19.7681 6.23625L18.9831 7.4925L17.5456 7.85063C17.2275 7.92938 16.9762 8.16313 16.875 8.47563C16.7737 8.78813 16.8387 9.125 17.05 9.37688L18.0025 10.5106L17.8987 11.9881C17.8756 12.3156 18.0206 12.6263 18.2862 12.8194C18.4512 12.9394 18.645 13.0013 18.8412 13.0013C18.9606 13.0013 19.0812 12.9781 19.1969 12.9313L20.5706 12.3763L21.9437 12.9313C22.2481 13.055 22.5881 13.0125 22.8544 12.82C23.12 12.6269 23.265 12.3163 23.2425 11.9881L23.1387 10.5106L24.0912 9.37625C24.3019 9.125 24.3675 8.78813 24.2656 8.47563ZM22.1306 9.96125C22.0369 10.0731 21.99 10.2169 22.0006 10.3631L22.1006 11.7819L20.7819 11.2488C20.7144 11.2213 20.6425 11.2075 20.5712 11.2075C20.5 11.2075 20.4281 11.2213 20.3606 11.2488L19.0425 11.7819L19.1419 10.3631C19.1519 10.2175 19.105 10.0731 19.0119 9.96125L18.0975 8.8725L19.4775 8.52813C19.6187 8.4925 19.7412 8.40438 19.8181 8.28063L20.5719 7.075L21.3256 8.28063C21.4031 8.40438 21.525 8.49313 21.6662 8.52813L23.0462 8.8725L22.1306 9.96125Z" fill="#12B880"/>
</g>
<defs>
<clipPath id="clip0_1_139">
<rect width="20" height="20" fill="white" transform="translate(5 5)"/>
</clipPath>
</defs>
</svg>
