<svg width="30" height="30" viewBox="0 0 30 30" fill="none" xmlns="http://www.w3.org/2000/svg">
<rect width="30" height="30" rx="5" fill="#ECFEF4"/>
<g clip-path="url(#clip0_1_602)">
<path d="M22.5425 12.5H22.4625C22.3452 12.499 22.231 12.4626 22.1347 12.3957C22.0384 12.3289 21.9644 12.2345 21.9225 12.125C21.8784 12.0193 21.8667 11.9028 21.8889 11.7904C21.9112 11.6779 21.9664 11.5747 22.0475 11.4938L22.1044 11.4369C22.4472 11.0927 22.6397 10.6267 22.6397 10.1409C22.6397 9.65515 22.4472 9.18916 22.1044 8.845L21.16 7.90125C20.8161 7.55814 20.3502 7.36545 19.8644 7.36545C19.3786 7.36545 18.9126 7.55814 18.5687 7.90125L18.5119 7.95812C18.4281 8.03882 18.3226 8.0933 18.2082 8.11488C18.0939 8.13646 17.9758 8.1242 17.8684 8.0796C17.7609 8.035 17.6688 7.96001 17.6034 7.86382C17.538 7.76764 17.502 7.65444 17.5 7.53812V7.4575C17.4995 6.97164 17.3063 6.50583 16.9627 6.16228C16.6192 5.81872 16.1534 5.6255 15.6675 5.625H14.3325C13.8466 5.6255 13.3808 5.81872 13.0373 6.16228C12.6937 6.50583 12.5005 6.97164 12.5 7.4575V7.53812C12.497 7.65361 12.4605 7.76573 12.395 7.86092C12.3296 7.9561 12.2379 8.03028 12.1312 8.07445C12.0245 8.11863 11.9072 8.13092 11.7936 8.10983C11.68 8.08874 11.575 8.03518 11.4913 7.95563L11.4375 7.89875C11.0936 7.55564 10.6277 7.36295 10.1419 7.36295C9.65609 7.36295 9.19014 7.55564 8.84625 7.89875L7.89875 8.8425C7.55591 9.18666 7.36341 9.65265 7.36341 10.1384C7.36341 10.6242 7.55591 11.0902 7.89875 11.4344L7.95563 11.4913C8.03753 11.5751 8.09236 11.6815 8.11298 11.7969C8.13359 11.9122 8.11906 12.0311 8.07125 12.1381C8.02836 12.2447 7.95467 12.336 7.85959 12.4005C7.76451 12.465 7.65237 12.4996 7.5375 12.5H7.4575C6.97164 12.5005 6.50583 12.6937 6.16228 13.0373C5.81872 13.3808 5.6255 13.8466 5.625 14.3325V15.6675C5.6255 16.1534 5.81872 16.6192 6.16228 16.9627C6.50583 17.3063 6.97164 17.4995 7.4575 17.5H7.5375C7.65476 17.501 7.76899 17.5374 7.86531 17.6043C7.96163 17.6711 8.03557 17.7655 8.0775 17.875C8.12164 17.9807 8.13333 18.0972 8.11107 18.2096C8.08881 18.3221 8.03361 18.4253 7.9525 18.5063L7.89562 18.5631C7.55278 18.9073 7.36028 19.3733 7.36028 19.8591C7.36028 20.3448 7.55278 20.8108 7.89562 21.155L8.83938 22.0981C9.18321 22.4416 9.64932 22.6345 10.1353 22.6345C10.6213 22.6345 11.0874 22.4416 11.4313 22.0981L11.4881 22.0413C11.572 21.9594 11.6785 21.9046 11.7938 21.884C11.9091 21.8634 12.028 21.8779 12.135 21.9256C12.2416 21.9683 12.3329 22.0419 12.3974 22.1369C12.4619 22.2319 12.4965 22.3439 12.4969 22.4587V22.5394C12.4967 22.7805 12.5441 23.0193 12.6363 23.242C12.7285 23.4648 12.8637 23.6672 13.0342 23.8377C13.2046 24.0082 13.4071 24.1434 13.6298 24.2356C13.8526 24.3278 14.0914 24.3752 14.3325 24.375H15.6675C16.1534 24.3745 16.6192 24.1813 16.9627 23.8377C17.3063 23.4942 17.4995 23.0284 17.5 22.5425V22.4619C17.503 22.3464 17.5395 22.2343 17.605 22.1391C17.6704 22.0439 17.7621 21.9697 17.8688 21.9255C17.9755 21.8814 18.0928 21.8691 18.2064 21.8902C18.32 21.9113 18.425 21.9648 18.5087 22.0444L18.5656 22.1012C18.9095 22.4444 19.3755 22.6371 19.8612 22.6371C20.347 22.6371 20.813 22.4444 21.1569 22.1012L22.1012 21.1581C22.4441 20.814 22.6366 20.348 22.6366 19.8622C22.6366 19.3764 22.4441 18.9104 22.1012 18.5662L22.0444 18.5094C21.9625 18.4256 21.9076 18.3191 21.887 18.2037C21.8664 18.0884 21.8809 17.9695 21.9288 17.8625C21.9715 17.7558 22.0452 17.6643 22.1403 17.5998C22.2354 17.5352 22.3476 17.5004 22.4625 17.5H22.5425C23.0284 17.4995 23.4942 17.3063 23.8377 16.9627C24.1813 16.6192 24.3745 16.1534 24.375 15.6675V14.3325C24.3745 13.8466 24.1813 13.3808 23.8377 13.0373C23.4942 12.6937 23.0284 12.5005 22.5425 12.5ZM23.125 15.6675C23.1248 15.8219 23.0634 15.97 22.9542 16.0792C22.845 16.1884 22.6969 16.2498 22.5425 16.25H22.4625C22.0998 16.2531 21.746 16.3629 21.4453 16.5656C21.1446 16.7684 20.9102 17.0552 20.7714 17.3903C20.6326 17.7254 20.5955 18.094 20.6647 18.45C20.7339 18.806 20.9064 19.1338 21.1606 19.3925L21.2169 19.4494C21.326 19.5588 21.3873 19.707 21.3873 19.8616C21.3873 20.0161 21.326 20.1643 21.2169 20.2738L20.2725 21.2169C20.1633 21.3261 20.0151 21.3875 19.8606 21.3875C19.7061 21.3875 19.558 21.3261 19.4487 21.2169L19.3925 21.16C19.1337 20.906 18.8059 20.7338 18.45 20.6648C18.0941 20.5957 17.7257 20.6329 17.3907 20.7717C17.0557 20.9104 16.769 21.1447 16.5662 21.4452C16.3633 21.7458 16.2534 22.0993 16.25 22.4619V22.5425C16.2498 22.6969 16.1884 22.845 16.0792 22.9542C15.97 23.0634 15.8219 23.1248 15.6675 23.125H14.3325C14.1781 23.1248 14.03 23.0634 13.9208 22.9542C13.8116 22.845 13.7502 22.6969 13.75 22.5425V22.4619C13.7482 22.0986 13.6392 21.7439 13.4366 21.4423C13.2341 21.1407 12.9469 20.9057 12.6113 20.7667C12.2756 20.6277 11.9064 20.591 11.5499 20.6611C11.1934 20.7311 10.8656 20.9049 10.6075 21.1606L10.5506 21.2175C10.4412 21.3264 10.2931 21.3876 10.1388 21.3876C9.98437 21.3876 9.83628 21.3264 9.72688 21.2175L8.78312 20.2744C8.67401 20.1649 8.61273 20.0167 8.61273 19.8622C8.61273 19.7077 8.67401 19.5594 8.78312 19.45L8.84 19.3931C9.0945 19.1344 9.26718 18.8065 9.33649 18.4503C9.40581 18.0941 9.36869 17.7254 9.22977 17.3902C9.09084 17.0549 8.85627 16.768 8.55532 16.5653C8.25437 16.3625 7.90037 16.2528 7.5375 16.25H7.4575C7.30306 16.2498 7.155 16.1884 7.04579 16.0792C6.93659 15.97 6.87517 15.8219 6.875 15.6675V14.3325C6.87517 14.1781 6.93659 14.03 7.04579 13.9208C7.155 13.8116 7.30306 13.7502 7.4575 13.75H7.5375C7.90019 13.7469 8.25395 13.6371 8.55468 13.4344C8.8554 13.2316 9.08979 12.9448 9.22861 12.6097C9.36743 12.2746 9.40454 11.906 9.33533 11.55C9.26611 11.194 9.09363 10.8662 8.83938 10.6075L8.78312 10.5506C8.67405 10.4413 8.61279 10.2932 8.61279 10.1388C8.61279 9.98432 8.67405 9.83619 8.78312 9.72688L9.72688 8.7825C9.83611 8.67327 9.98427 8.6119 10.1388 8.6119C10.2932 8.6119 10.4414 8.67327 10.5506 8.7825L10.6069 8.83938C10.8656 9.0935 11.1934 9.2659 11.5493 9.33509C11.9053 9.40428 12.2738 9.36721 12.6089 9.22849C12.944 9.08977 13.2308 8.85554 13.4337 8.55496C13.6366 8.25439 13.7466 7.90076 13.75 7.53812V7.4575C13.7502 7.30306 13.8116 7.155 13.9208 7.04579C14.03 6.93659 14.1781 6.87517 14.3325 6.875H15.6675C15.8219 6.87517 15.97 6.93659 16.0792 7.04579C16.1884 7.155 16.2498 7.30306 16.25 7.4575V7.53812C16.2532 7.90076 16.3631 8.25444 16.5659 8.55507C16.7687 8.8557 17.0555 9.08999 17.3906 9.22873C17.7257 9.36748 18.0942 9.40454 18.4501 9.3353C18.8061 9.26607 19.1339 9.09359 19.3925 8.83938L19.4494 8.7825C19.5586 8.67327 19.7068 8.6119 19.8612 8.6119C20.0157 8.6119 20.1639 8.67327 20.2731 8.7825L21.2169 9.72688C21.326 9.83619 21.3872 9.98432 21.3872 10.1388C21.3872 10.2932 21.326 10.4413 21.2169 10.5506L21.16 10.6075C20.9057 10.8662 20.7332 11.1941 20.664 11.5502C20.5948 11.9063 20.632 12.2748 20.7709 12.61C20.9098 12.9451 21.1443 13.2319 21.4451 13.4346C21.7459 13.6373 22.0998 13.747 22.4625 13.75H22.5425C22.6969 13.7502 22.845 13.8116 22.9542 13.9208C23.0634 14.03 23.1248 14.1781 23.125 14.3325V15.6675Z" fill="#12B880"/>
<path d="M15 10.625C14.1347 10.625 13.2888 10.8816 12.5694 11.3623C11.8499 11.8431 11.2892 12.5263 10.958 13.3258C10.6269 14.1252 10.5403 15.0049 10.7091 15.8535C10.8779 16.7022 11.2946 17.4817 11.9064 18.0936C12.5183 18.7054 13.2978 19.1221 14.1465 19.2909C14.9951 19.4597 15.8748 19.3731 16.6742 19.042C17.4737 18.7108 18.157 18.1501 18.6377 17.4306C19.1184 16.7112 19.375 15.8653 19.375 15C19.3737 13.8401 18.9123 12.7281 18.0921 11.9079C17.2719 11.0877 16.1599 10.6263 15 10.625ZM15 18.125C14.3819 18.125 13.7777 17.9417 13.2638 17.5983C12.7499 17.255 12.3494 16.7669 12.1129 16.1959C11.8764 15.6249 11.8145 14.9965 11.935 14.3903C12.0556 13.7842 12.3533 13.2273 12.7903 12.7903C13.2273 12.3533 13.7842 12.0556 14.3903 11.935C14.9965 11.8145 15.6249 11.8764 16.1959 12.1129C16.7669 12.3494 17.255 12.7499 17.5983 13.2638C17.9417 13.7777 18.125 14.3819 18.125 15C18.124 15.8285 17.7945 16.6228 17.2086 17.2086C16.6228 17.7944 15.8285 18.124 15 18.125Z" fill="#12B880"/>
</g>
<defs>
<clipPath id="clip0_1_602">
<rect width="20" height="20" fill="white" transform="translate(5 5)"/>
</clipPath>
</defs>
</svg>
