<svg width="30" height="30" viewBox="0 0 30 30" fill="none" xmlns="http://www.w3.org/2000/svg">
<rect width="30" height="30" rx="5" fill="#ECFEF4"/>
<g clip-path="url(#clip0_1_510)">
<path d="M11.8555 10.6641H8.73047C8.40687 10.6641 8.14453 10.9264 8.14453 11.25C8.14453 11.5736 8.40687 11.8359 8.73047 11.8359H11.8555C12.1791 11.8359 12.4414 11.5736 12.4414 11.25C12.4414 10.9264 12.1791 10.6641 11.8555 10.6641Z" fill="#12B880"/>
<path d="M11.8555 13.7891H8.73047C8.40687 13.7891 8.14453 14.0514 8.14453 14.375C8.14453 14.6986 8.40687 14.9609 8.73047 14.9609H11.8555C12.1791 14.9609 12.4414 14.6986 12.4414 14.375C12.4414 14.0514 12.1791 13.7891 11.8555 13.7891Z" fill="#12B880"/>
<path d="M11.8555 16.9141H8.73047C8.40687 16.9141 8.14453 17.1764 8.14453 17.5C8.14453 17.8236 8.40687 18.0859 8.73047 18.0859H11.8555C12.1791 18.0859 12.4414 17.8236 12.4414 17.5C12.4414 17.1764 12.1791 16.9141 11.8555 16.9141Z" fill="#12B880"/>
<path d="M20.2539 15.7394V10.3898C20.2539 9.61758 19.9561 8.88902 19.4154 8.33801L17.038 5.87945C17.0369 5.87828 17.0357 5.87707 17.0346 5.8759C16.4872 5.31926 15.7255 5 14.9449 5H7.40234C6.43309 5 5.64453 5.78855 5.64453 6.75781V21.9531C5.64453 22.9224 6.43309 23.7109 7.40234 23.7109H16.4583C17.2933 24.5091 18.4244 25 19.668 25C22.2527 25 24.3555 22.9147 24.3555 20.3516C24.3555 17.9852 22.5631 16.0262 20.2539 15.7394ZM6.81641 21.9531V6.75781C6.81641 6.43473 7.07926 6.17188 7.40234 6.17188H14.9449C15.4127 6.17188 15.8691 6.36293 16.1975 6.69602L18.5745 9.15418C18.5756 9.15535 18.5768 9.15652 18.5779 9.15766C18.903 9.4884 19.082 9.92598 19.082 10.3899V15.74C16.7945 16.0289 15.0195 17.9869 15.0195 20.3516C15.0195 21.142 15.218 21.8868 15.5675 22.5391H7.40234C7.07926 22.5391 6.81641 22.2762 6.81641 21.9531ZM19.668 23.8281C17.751 23.8281 16.1914 22.2686 16.1914 20.3516C16.1914 18.4346 17.751 16.875 19.668 16.875C21.6065 16.875 23.1836 18.4346 23.1836 20.3516C23.1836 22.2686 21.6065 23.8281 19.668 23.8281Z" fill="#12B880"/>
<path d="M21.0196 18.9639C20.7711 18.7569 20.4016 18.7904 20.1944 19.039L19.2055 20.2257L18.9811 19.7771C18.8364 19.4876 18.4845 19.3702 18.195 19.515C17.9055 19.6597 17.7882 20.0117 17.933 20.3011L18.558 21.5511C18.6464 21.728 18.8181 21.8483 19.0145 21.8711C19.0371 21.8737 19.0596 21.875 19.0821 21.875C19.2548 21.875 19.4202 21.7986 19.5322 21.6642L21.0947 19.7892C21.3018 19.5405 21.2682 19.1711 21.0196 18.9639Z" fill="#12B880"/>
<path d="M14.9805 11.8359H15.6055C15.9291 11.8359 16.1914 11.5736 16.1914 11.25C16.1914 10.9264 15.9291 10.6641 15.6055 10.6641H14.9805C14.6569 10.6641 14.3945 10.9264 14.3945 11.25C14.3945 11.5736 14.6569 11.8359 14.9805 11.8359Z" fill="#12B880"/>
<path d="M16.1914 14.375C16.1914 14.0514 15.9291 13.7891 15.6055 13.7891H14.9805C14.6569 13.7891 14.3945 14.0514 14.3945 14.375C14.3945 14.6986 14.6569 14.9609 14.9805 14.9609H15.6055C15.9291 14.9609 16.1914 14.6986 16.1914 14.375Z" fill="#12B880"/>
</g>
<defs>
<clipPath id="clip0_1_510">
<rect width="20" height="20" fill="white" transform="translate(5 5)"/>
</clipPath>
</defs>
</svg>
