<svg width="30" height="30" viewBox="0 0 30 30" fill="none" xmlns="http://www.w3.org/2000/svg">
<rect width="30" height="30" rx="5" fill="#ECFEF4"/>
<path fill-rule="evenodd" clip-rule="evenodd" d="M20.1417 14.375C18.7617 14.375 17.6417 15.495 17.6417 16.875C17.6417 18.255 18.7617 19.375 20.1417 19.375C21.5217 19.375 22.6417 18.255 22.6417 16.875C22.6417 15.495 21.5217 14.375 20.1417 14.375ZM20.1417 15.625C20.8317 15.625 21.3917 16.185 21.3917 16.875C21.3917 17.565 20.8317 18.125 20.1417 18.125C19.4517 18.125 18.8917 17.565 18.8917 16.875C18.8917 16.185 19.4517 15.625 20.1417 15.625Z" fill="#12B880"/>
<path fill-rule="evenodd" clip-rule="evenodd" d="M17.7725 23.9583C19.0392 23.9583 21.25 23.9583 22.5167 23.9475C22.9842 23.9475 23.4275 23.7158 23.6983 23.3275C23.9692 22.9392 24.0325 22.4433 23.8692 21.9992C23.325 20.4733 21.8608 19.375 20.1417 19.375C18.425 19.375 16.9617 20.47 16.4033 21.9958C16.2383 22.4433 16.3025 22.9433 16.5758 23.3342C16.8483 23.7258 17.2958 23.9583 17.7725 23.9583ZM17.7725 22.7083C17.7042 22.7083 17.64 22.675 17.6008 22.6192C17.5617 22.5633 17.5525 22.4917 17.5758 22.4275C17.5767 22.4275 17.5767 22.4267 17.5767 22.4267C17.96 21.3792 18.9633 20.625 20.1417 20.625C21.3183 20.625 22.32 21.3767 22.6942 22.425C22.695 22.4275 22.695 22.43 22.6958 22.4317C22.7183 22.4925 22.71 22.56 22.6725 22.6125C22.6358 22.6658 22.5758 22.6975 22.5108 22.6975C22.5092 22.6975 22.5075 22.6975 22.5058 22.6975C21.2417 22.7083 19.0358 22.7083 17.7725 22.7083Z" fill="#12B880"/>
<path fill-rule="evenodd" clip-rule="evenodd" d="M22.2917 12.5V10.4167C22.2917 8.69083 20.8925 7.29167 19.1667 7.29167H9.16667C7.44083 7.29167 6.04167 8.69083 6.04167 10.4167V20.4167C6.04167 22.1425 7.44083 23.5417 9.16667 23.5417H14.1667C14.5117 23.5417 14.7917 23.2617 14.7917 22.9167C14.7917 22.5717 14.5117 22.2917 14.1667 22.2917C14.1667 22.2917 11.3483 22.2917 9.16667 22.2917C8.13083 22.2917 7.29167 21.4525 7.29167 20.4167V10.4167C7.29167 9.38083 8.13083 8.54167 9.16667 8.54167H19.1667C20.2025 8.54167 21.0417 9.38083 21.0417 10.4167V12.5C21.0417 12.845 21.3217 13.125 21.6667 13.125C22.0117 13.125 22.2917 12.845 22.2917 12.5Z" fill="#12B880"/>
<path fill-rule="evenodd" clip-rule="evenodd" d="M10 6.66667V9.16667C10 9.51167 10.28 9.79167 10.625 9.79167C10.97 9.79167 11.25 9.51167 11.25 9.16667V6.66667C11.25 6.32167 10.97 6.04167 10.625 6.04167C10.28 6.04167 10 6.32167 10 6.66667Z" fill="#12B880"/>
<path fill-rule="evenodd" clip-rule="evenodd" d="M17.0833 6.66667V9.16667C17.0833 9.51167 17.3633 9.79167 17.7083 9.79167C18.0533 9.79167 18.3333 9.51167 18.3333 9.16667V6.66667C18.3333 6.32167 18.0533 6.04167 17.7083 6.04167C17.3633 6.04167 17.0833 6.32167 17.0833 6.66667Z" fill="#12B880"/>
<path fill-rule="evenodd" clip-rule="evenodd" d="M10 13.9583H12.5833C12.9283 13.9583 13.2083 13.6783 13.2083 13.3333C13.2083 12.9883 12.9283 12.7083 12.5833 12.7083H10C9.655 12.7083 9.375 12.9883 9.375 13.3333C9.375 13.6783 9.655 13.9583 10 13.9583Z" fill="#12B880"/>
<path fill-rule="evenodd" clip-rule="evenodd" d="M10 17.2917H14.1667C14.5117 17.2917 14.7917 17.0117 14.7917 16.6667C14.7917 16.3217 14.5117 16.0417 14.1667 16.0417H10C9.655 16.0417 9.375 16.3217 9.375 16.6667C9.375 17.0117 9.655 17.2917 10 17.2917Z" fill="#12B880"/>
</svg>
