<svg width="30" height="30" viewBox="0 0 30 30" fill="none" xmlns="http://www.w3.org/2000/svg">
<rect width="30" height="30" rx="5" fill="#ECFEF4"/>
<g clip-path="url(#clip0_1_220)">
<path d="M17.9167 10.8333H12.0833C11.3942 10.8333 10.8333 10.2725 10.8333 9.58334C10.8333 8.89418 11.3942 8.33334 12.0833 8.33334H17.9167C18.6058 8.33334 19.1667 8.89418 19.1667 9.58334C19.1667 10.2725 18.6058 10.8333 17.9167 10.8333ZM12.0833 9.16668C11.8533 9.16668 11.6667 9.35418 11.6667 9.58334C11.6667 9.81251 11.8533 10 12.0833 10H17.9167C18.1467 10 18.3333 9.81251 18.3333 9.58334C18.3333 9.35418 18.1467 9.16668 17.9167 9.16668H12.0833Z" fill="#12B880"/>
<path d="M17.0833 9.16667C16.9608 9.16667 16.84 9.11333 16.7575 9.01C16.6142 8.83 16.6433 8.56833 16.8225 8.42417L19.1342 6.575C19.3483 6.40417 19.2908 6.17667 19.2675 6.11083C19.245 6.04667 19.1483 5.83333 18.8742 5.83333H11.1258C10.8517 5.83333 10.755 6.04667 10.7325 6.11167C10.7092 6.1775 10.6508 6.405 10.8658 6.57583L13.1775 8.425C13.3567 8.56917 13.3858 8.83083 13.2425 9.01083C13.0992 9.19 12.8367 9.21917 12.6567 9.07583L10.345 7.22667C9.92417 6.89 9.7675 6.34417 9.94583 5.83583C10.1242 5.32833 10.5875 5 11.1258 5H18.875C19.4133 5 19.8767 5.32833 20.055 5.83583C20.2333 6.34417 20.0767 6.89 19.6558 7.22667L17.3442 9.07583C17.2667 9.13667 17.175 9.16667 17.0833 9.16667Z" fill="#12B880"/>
<path d="M15.4167 20.4167H13.3333C13.1033 20.4167 12.9167 20.23 12.9167 20C12.9167 19.77 13.1033 19.5833 13.3333 19.5833H15.4167C15.8758 19.5833 16.25 19.21 16.25 18.75C16.25 18.29 15.8758 17.9167 15.4167 17.9167H14.5833C13.6642 17.9167 12.9167 17.1692 12.9167 16.25C12.9167 15.3308 13.6642 14.5833 14.5833 14.5833H16.6667C16.8967 14.5833 17.0833 14.77 17.0833 15C17.0833 15.23 16.8967 15.4167 16.6667 15.4167H14.5833C14.1242 15.4167 13.75 15.79 13.75 16.25C13.75 16.71 14.1242 17.0833 14.5833 17.0833H15.4167C16.3358 17.0833 17.0833 17.8308 17.0833 18.75C17.0833 19.6692 16.3358 20.4167 15.4167 20.4167Z" fill="#12B880"/>
<path d="M15 21.6667C14.77 21.6667 14.5833 21.48 14.5833 21.25V20C14.5833 19.77 14.77 19.5833 15 19.5833C15.23 19.5833 15.4167 19.77 15.4167 20V21.25C15.4167 21.48 15.23 21.6667 15 21.6667Z" fill="#12B880"/>
<path d="M15 15.4167C14.77 15.4167 14.5833 15.23 14.5833 15V13.75C14.5833 13.52 14.77 13.3333 15 13.3333C15.23 13.3333 15.4167 13.52 15.4167 13.75V15C15.4167 15.23 15.23 15.4167 15 15.4167Z" fill="#12B880"/>
<path d="M17.9167 25H12.0833C8.9175 25 7.5 22.2792 7.5 19.5833C7.5 15.7142 9.5425 11.7083 12.3558 10.0567C12.42 10.0192 12.4925 10 12.5667 10H17.4333C17.5075 10 17.58 10.0192 17.6442 10.0567C20.4575 11.7083 22.5 15.7142 22.5 19.5833C22.5 22.2792 21.0825 25 17.9167 25ZM12.6817 10.8333C10.1567 12.3783 8.33333 16.0358 8.33333 19.5833C8.33333 21.6975 9.31583 24.1667 12.0833 24.1667H17.9167C20.6842 24.1667 21.6667 21.6975 21.6667 19.5833C21.6667 16.0358 19.8433 12.3783 17.3183 10.8333H12.6817Z" fill="#12B880"/>
</g>
<defs>
<clipPath id="clip0_1_220">
<rect width="20" height="20" fill="white" transform="translate(5 5)"/>
</clipPath>
</defs>
</svg>
