<svg width="30" height="30" viewBox="0 0 30 30" fill="none" xmlns="http://www.w3.org/2000/svg">
<rect width="30" height="30" rx="5" fill="#ECFEF4"/>
<path fill-rule="evenodd" clip-rule="evenodd" d="M7.91666 13.3333H10.4167C10.6458 13.3333 10.8333 13.1458 10.8333 12.9167V12.0833C10.8333 11.8542 10.6458 11.6667 10.4167 11.6667H7.91666C7.68749 11.6667 7.49999 11.8542 7.49999 12.0833V12.9167C7.49999 13.1458 7.68749 13.3333 7.91666 13.3333ZM7.49999 16.6667H21.6667V14.5833C21.6667 14.3542 21.4792 14.1667 21.25 14.1667H7.49999V16.6667ZM22.0833 19.1667C21.8533 19.1667 21.6667 18.98 21.6667 18.75V17.5H7.49999V18.75C7.49999 18.98 7.31332 19.1667 7.08332 19.1667C6.85332 19.1667 6.66666 18.98 6.66666 18.75V9.58333C6.66666 9.35333 6.85332 9.16667 7.08332 9.16667C7.31332 9.16667 7.49999 9.35333 7.49999 9.58333V10.905C7.62999 10.8583 7.77082 10.8333 7.91666 10.8333H10.4167C11.1058 10.8333 11.6667 11.3942 11.6667 12.0833V12.9167C11.6667 13.0625 11.6417 13.2033 11.595 13.3333H21.25C21.9392 13.3333 22.5 13.8942 22.5 14.5833V18.75C22.5 18.98 22.3133 19.1667 22.0833 19.1667Z" fill="#12B880"/>
</svg>
