<svg width="30" height="30" viewBox="0 0 30 30" fill="none" xmlns="http://www.w3.org/2000/svg">
<rect width="30" height="30" rx="5" fill="#ECFEF4"/>
<g clip-path="url(#clip0_1_244)">
<path d="M22.0711 7.92892C20.1823 6.04019 17.6711 5 15 5C12.3289 5 9.81766 6.04019 7.92892 7.92892C6.04019 9.81766 5 12.3289 5 15C5 17.6711 6.04019 20.1823 7.92892 22.0711C9.81766 23.9598 12.3289 25 15 25C17.6711 25 20.1823 23.9598 22.0711 22.0711C23.9598 20.1823 25 17.6711 25 15C25 12.3289 23.9598 9.81766 22.0711 7.92892ZM9.34006 21.7694C9.67026 18.9282 12.113 16.7346 15 16.7346C16.5219 16.7346 17.953 17.3276 19.0295 18.4039C19.939 19.3135 20.5125 20.5011 20.6601 21.7693C19.1266 23.0536 17.1521 23.8281 15 23.8281C12.8479 23.8281 10.8736 23.0537 9.34006 21.7694ZM15 15.5276C13.3253 15.5276 11.9627 14.165 11.9627 12.4904C11.9627 10.8156 13.3253 9.45312 15 9.45312C16.6747 9.45312 18.0373 10.8156 18.0373 12.4904C18.0373 14.165 16.6747 15.5276 15 15.5276ZM21.6687 20.7787C21.3701 19.5747 20.7474 18.4647 19.8581 17.5754C19.1379 16.8552 18.2858 16.3148 17.3566 15.9763C18.4737 15.2187 19.2091 13.9388 19.2091 12.4904C19.2091 10.1695 17.3209 8.28125 15 8.28125C12.6791 8.28125 10.7909 10.1695 10.7909 12.4904C10.7909 13.9395 11.5269 15.2199 12.645 15.9773C11.79 16.2889 10.9988 16.7706 10.3181 17.4048C9.33243 18.3228 8.64792 19.4933 8.33054 20.7777C6.98639 19.2282 6.17188 17.2075 6.17188 15C6.17188 10.1321 10.1321 6.17188 15 6.17188C19.8679 6.17188 23.8281 10.1321 23.8281 15C23.8281 17.2079 23.0133 19.2291 21.6687 20.7787Z" fill="#12B880"/>
</g>
<defs>
<clipPath id="clip0_1_244">
<rect width="20" height="20" fill="white" transform="translate(5 5)"/>
</clipPath>
</defs>
</svg>
