<svg width="30" height="30" viewBox="0 0 30 30" fill="none" xmlns="http://www.w3.org/2000/svg">
<rect width="30" height="30" rx="5" fill="#ECFEF4"/>
<g clip-path="url(#clip0_1_435)">
<path d="M22.5 15.9063V15.2813C22.6725 15.2813 22.8125 15.1414 22.8125 14.9688V13.0938C22.8125 12.9211 22.6725 12.7813 22.5 12.7813H20.8125L20.752 12.5465C20.6138 12.0096 20.3992 11.4954 20.1144 11.0197L19.9894 10.8105L21.1875 9.61035C21.3081 9.4895 21.3081 9.2937 21.1875 9.17285L19.8604 7.84375C19.7378 7.72693 19.5453 7.72693 19.4227 7.84375L18.2224 9.04407L18.0134 8.91907C17.537 8.63416 17.0222 8.41956 16.4846 8.28125L16.25 8.22022V6.53125C16.25 6.35864 16.1101 6.21875 15.9375 6.21875H14.0625C13.8899 6.21875 13.75 6.35864 13.75 6.53125V8.21875L13.5153 8.27942C12.9784 8.41748 12.4641 8.63208 11.9882 8.9165L11.7791 9.04163L10.5791 7.84375C10.4564 7.72595 10.2627 7.72595 10.14 7.84375L8.8125 9.1709C8.75415 9.22913 8.72131 9.30823 8.72131 9.39063C8.72131 9.47315 8.75415 9.55212 8.8125 9.61035L10.0128 10.8105L9.88782 11.0197C9.60315 11.4954 9.38843 12.0096 9.25037 12.5465L9.18909 12.7813H7.5C7.32739 12.7813 7.1875 12.9211 7.1875 13.0938V14.9688C7.1875 15.1414 7.32739 15.2813 7.5 15.2813V15.9063C6.9823 15.9063 6.5625 15.4865 6.5625 14.9688V13.0938C6.5625 12.5761 6.9823 12.1563 7.5 12.1563H8.70911C8.83801 11.7241 9.01233 11.3069 9.22912 10.9116L8.36975 10.0522C8.19397 9.87683 8.09521 9.63879 8.09521 9.39063C8.09521 9.14246 8.19397 8.90442 8.36975 8.72913L9.69787 7.401C10.0679 7.04688 10.6512 7.04688 11.0212 7.401L11.8804 8.26001C12.2756 8.04334 12.693 7.86939 13.125 7.7406V6.53125C13.125 6.01355 13.5448 5.59375 14.0625 5.59375H15.9375C16.4552 5.59375 16.875 6.01355 16.875 6.53125V7.7406C17.3071 7.86939 17.7242 8.0437 18.1196 8.26038L18.979 7.401C19.3491 7.04688 19.9324 7.04688 20.3025 7.401L21.6304 8.72876C21.806 8.90418 21.9047 9.14197 21.9047 9.39026C21.9047 9.63855 21.806 9.87659 21.6304 10.0519L20.771 10.9113C20.9877 11.3068 21.1619 11.7241 21.2909 12.1563H22.5C23.0177 12.1563 23.4375 12.5761 23.4375 13.0938V14.9688C23.4375 15.4865 23.0177 15.9063 22.5 15.9063Z" fill="#12B880"/>
<path d="M19.375 14.0313H18.75C18.75 11.9602 17.071 10.2813 15 10.2813C12.929 10.2813 11.25 11.9602 11.25 14.0313H10.625C10.625 11.615 12.5837 9.65625 15 9.65625C17.4161 9.65625 19.375 11.615 19.375 14.0313Z" fill="#12B880"/>
<path d="M15 16.5313C13.9645 16.5313 13.125 15.6917 13.125 14.6563C13.125 13.6207 13.9645 12.7812 15 12.7812C16.0356 12.7812 16.875 13.6207 16.875 14.6563C16.8739 15.6914 16.0352 16.5302 15 16.5313ZM15 13.4063C14.3097 13.4063 13.75 13.9659 13.75 14.6563C13.75 15.3466 14.3097 15.9063 15 15.9063C15.6903 15.9063 16.25 15.3466 16.25 14.6563C16.25 13.9659 15.6903 13.4063 15 13.4063Z" fill="#12B880"/>
<path d="M20.3125 17.7813C19.277 17.7813 18.4375 16.9417 18.4375 15.9063C18.4375 14.8707 19.277 14.0312 20.3125 14.0312C21.348 14.0312 22.1875 14.8707 22.1875 15.9063C22.1864 16.9414 21.3477 17.7802 20.3125 17.7813ZM20.3125 14.6563C19.6222 14.6563 19.0625 15.2159 19.0625 15.9063C19.0625 16.5966 19.6222 17.1563 20.3125 17.1563C21.0028 17.1563 21.5625 16.5966 21.5625 15.9063C21.5625 15.2159 21.0028 14.6563 20.3125 14.6563Z" fill="#12B880"/>
<path d="M9.6875 17.7813C8.65198 17.7813 7.8125 16.9417 7.8125 15.9063C7.8125 14.8707 8.65198 14.0312 9.6875 14.0312C10.7231 14.0312 11.5625 14.8707 11.5625 15.9063C11.5614 16.9414 10.7227 17.7802 9.6875 17.7813ZM9.6875 14.6563C8.99719 14.6563 8.4375 15.2159 8.4375 15.9063C8.4375 16.5966 8.99719 17.1563 9.6875 17.1563C10.3778 17.1563 10.9375 16.5966 10.9375 15.9063C10.9375 15.2159 10.3778 14.6563 9.6875 14.6563Z" fill="#12B880"/>
<path d="M23.1455 18.583C22.6798 18.263 22.1277 18.0922 21.5625 18.0938H19.0625C18.9105 18.0951 18.7588 18.1089 18.609 18.1349C18.4091 17.8222 18.1489 17.5524 17.8438 17.3408C17.798 17.3063 17.7499 17.2749 17.6997 17.2472C17.2626 16.9824 16.761 16.843 16.25 16.8438H13.75C12.7943 16.8403 11.9038 17.328 11.3918 18.1349C11.2417 18.1089 11.0897 18.0951 10.9375 18.0938H8.4375C7.8728 18.0922 7.3208 18.2627 6.85535 18.5824C6.08606 19.1059 5.62549 19.9758 5.625 20.9063V22.1563C5.6261 23.0095 6.12256 23.7844 6.89758 24.1419C7.18371 24.2766 7.49634 24.3456 7.8125 24.3438H10.9375V23.7188H8.125V20.2813H7.5V23.6874C7.38232 23.6638 7.26806 23.6258 7.15967 23.5744C6.60608 23.3191 6.25122 22.7658 6.25 22.1563V20.9063C6.25073 20.1821 6.6095 19.5053 7.20813 19.098C7.56982 18.8497 7.99866 18.7175 8.4375 18.7188H10.9375C10.9926 18.7188 11.0457 18.7246 11.0994 18.7283C10.9937 19.0264 10.9388 19.3401 10.9375 19.6563V22.7813C10.9386 23.6438 11.6376 24.3427 12.5 24.3438H13.4375V19.3438H12.8125V23.7188H12.5C11.9823 23.7188 11.5625 23.299 11.5625 22.7813V19.6563C11.5625 18.448 12.542 17.4688 13.75 17.4688H16.25C16.6521 17.469 17.0461 17.5803 17.389 17.7903C17.4208 17.8076 17.4513 17.8272 17.4802 17.8487C17.7731 18.0492 18.0134 18.3172 18.1809 18.6299C18.3492 18.9458 18.4375 19.2982 18.4375 19.6563V22.7813C18.4375 23.299 18.0177 23.7188 17.5 23.7188H17.1875V19.3438H16.5625V24.3438H17.5C18.3625 24.3427 19.0614 23.6438 19.0625 22.7813V19.6563C19.061 19.3401 19.0065 19.0265 18.9009 18.7283C18.9547 18.7246 19.0078 18.7188 19.0625 18.7188H21.5625C22.0016 18.7175 22.4308 18.8501 22.7927 19.0987C23.3909 19.5061 23.7491 20.1825 23.75 20.9063V22.1563C23.7489 22.768 23.3914 23.3229 22.8351 23.5768C22.7283 23.6273 22.6157 23.6644 22.5 23.6874V20.2813H21.875V23.7188H19.0625V24.3438H22.1875C22.5018 24.3457 22.8126 24.2776 23.0972 24.1443C23.8748 23.788 24.3738 23.0116 24.375 22.1563V20.9063C24.3745 19.9762 23.9143 19.1066 23.1455 18.583Z" fill="#12B880"/>
<path d="M13.75 23.7188H16.25V24.3438H13.75V23.7188Z" fill="#12B880"/>
</g>
<defs>
<clipPath id="clip0_1_435">
<rect width="20" height="20" fill="white" transform="translate(5 5)"/>
</clipPath>
</defs>
</svg>
