<svg width="30" height="30" viewBox="0 0 30 30" fill="none" xmlns="http://www.w3.org/2000/svg">
<rect width="30" height="30" rx="5" fill="#ECFEF4"/>
<g clip-path="url(#clip0_1_137)">
<path d="M17.7417 11.4533L16.9584 10.9122L18.0405 9.34579L18.087 9.37782C18.3675 9.57166 18.7136 9.64611 19.049 9.58479C19.2151 9.55443 19.3736 9.49165 19.5155 9.40004C19.6573 9.30843 19.7797 9.18978 19.8757 9.05086C19.9717 8.91194 20.0393 8.75548 20.0749 8.59041C20.1104 8.42534 20.113 8.25489 20.0827 8.08879C20.0523 7.92269 19.9895 7.7642 19.8979 7.62237C19.8063 7.48053 19.6876 7.35813 19.5487 7.26215L16.6018 5.22735C16.321 5.04334 15.9794 4.97644 15.6499 5.04092C15.3205 5.1054 15.0293 5.29615 14.8386 5.57244C14.6479 5.84872 14.5728 6.18862 14.6293 6.51953C14.6859 6.85044 14.8696 7.14612 15.1412 7.3434L15.1881 7.37544L14.106 8.94226L13.3228 8.40124C13.1839 8.30528 13.0274 8.23763 12.8624 8.20214C12.6973 8.16665 12.5269 8.16402 12.3608 8.1944C12.1947 8.22478 12.0363 8.28757 11.8944 8.3792C11.7526 8.47082 11.6303 8.58948 11.5343 8.72839C11.4384 8.86731 11.3707 9.02377 11.3352 9.18883C11.2997 9.35389 11.2971 9.52433 11.3275 9.6904C11.3579 9.85648 11.4206 10.015 11.5123 10.1568C11.6039 10.2986 11.7225 10.421 11.8615 10.5169L11.9083 10.5489L6.7891 17.9604C6.5665 18.2828 6.45962 18.6711 6.48586 19.062C6.51211 19.4529 6.66993 19.8234 6.93363 20.1132L6.62112 20.5648C6.46594 20.7891 6.38608 21.0569 6.3931 21.3295C6.40013 21.6022 6.49366 21.8656 6.66019 22.0816L5.06719 24.3863C5.03763 24.4285 5.01672 24.4762 5.00565 24.5265C4.99458 24.5768 4.99357 24.6288 5.00269 24.6795C5.01181 24.7302 5.03086 24.7786 5.05877 24.822C5.08667 24.8653 5.12287 24.9026 5.16527 24.9319C5.20768 24.9612 5.25545 24.9818 5.30585 24.9925C5.35625 25.0032 5.40826 25.0038 5.45891 24.9944C5.50956 24.9849 5.55783 24.9655 5.60096 24.9373C5.64408 24.9091 5.68119 24.8727 5.71017 24.8301L7.30278 22.5253C7.42338 22.5625 7.54887 22.5813 7.67505 22.5812C7.75365 22.5812 7.83209 22.5741 7.90943 22.5601C8.07566 22.5302 8.23431 22.4675 8.37619 22.3759C8.51807 22.2842 8.64037 22.1653 8.73601 22.0261L9.04852 21.5749C9.25058 21.6555 9.46614 21.6969 9.68368 21.6968C9.78942 21.6967 9.89493 21.687 9.99893 21.6679C10.2231 21.6275 10.437 21.5431 10.6283 21.4195C10.8195 21.296 10.9844 21.1357 11.1134 20.948L16.2307 13.5365L16.2776 13.5689C16.5581 13.7627 16.9042 13.8371 17.2396 13.7758C17.575 13.7144 17.8723 13.5223 18.0661 13.2418C18.2599 12.9612 18.3343 12.6152 18.2729 12.2798C18.2116 11.9443 18.0195 11.647 17.7389 11.4533H17.7417ZM15.4568 5.99885C15.5331 5.88857 15.6499 5.81308 15.7818 5.78898C15.9137 5.76488 16.0497 5.79414 16.16 5.87033L19.1057 7.90513C19.1602 7.94279 19.2068 7.99081 19.2428 8.04645C19.2787 8.1021 19.3033 8.16428 19.3152 8.22944C19.3272 8.29461 19.3261 8.36148 19.3122 8.42625C19.2983 8.49101 19.2717 8.5524 19.2341 8.60691C19.1964 8.66141 19.1484 8.70797 19.0927 8.74391C19.0371 8.77986 18.9749 8.80449 18.9098 8.81641C18.8446 8.82832 18.7777 8.82729 18.713 8.81336C18.6482 8.79943 18.5868 8.77288 18.5323 8.73523L15.5861 6.70042C15.5315 6.66276 15.4847 6.61467 15.4487 6.55892C15.4126 6.50317 15.3879 6.44085 15.376 6.37553C15.364 6.31021 15.3651 6.24317 15.3791 6.17827C15.3931 6.11336 15.4198 6.05186 15.4576 5.99728L15.4568 5.99885ZM15.8311 7.81959L17.3975 8.90164L16.3155 10.4685L14.749 9.38641L15.8311 7.81959ZM8.09498 21.582C8.01877 21.6922 7.90189 21.7677 7.77003 21.7918C7.63817 21.8159 7.50213 21.7867 7.39184 21.7105C7.33719 21.6728 7.29051 21.6247 7.25448 21.5689C7.21845 21.5131 7.19378 21.4508 7.18187 21.3855C7.16997 21.3202 7.17107 21.2532 7.18512 21.1883C7.19916 21.1234 7.22587 21.0619 7.26372 21.0073L7.55005 20.5925L8.25592 21.08L8.38014 21.1659L8.09498 21.582ZM9.85908 20.8984C9.73615 20.9212 9.60992 20.9194 9.48768 20.8931C9.36545 20.8668 9.24964 20.8166 9.14696 20.7452L7.67388 19.7296C7.46617 19.5861 7.32397 19.366 7.27855 19.1176C7.23313 18.8693 7.28821 18.6131 7.43169 18.4053L9.8165 14.9525L14.2228 15.0736L12.9822 16.8705L11.831 16.0752C11.7457 16.0184 11.6416 15.9974 11.541 16.0167C11.4404 16.036 11.3514 16.094 11.2932 16.1783C11.2349 16.2625 11.2121 16.3663 11.2296 16.4672C11.2471 16.5681 11.3036 16.6581 11.3868 16.7178L12.5392 17.5112L11.965 18.3413L11.1818 17.8003C11.0965 17.7414 10.9913 17.7187 10.8894 17.7374C10.7874 17.756 10.6971 17.8144 10.6382 17.8997C10.5793 17.9849 10.5567 18.0901 10.5753 18.192C10.594 18.294 10.6523 18.3843 10.7376 18.4432L11.5208 18.9843L10.9478 19.8144L9.79619 19.019C9.71093 18.9623 9.60679 18.9412 9.50619 18.9605C9.40559 18.9798 9.31659 19.0378 9.25835 19.1221C9.20011 19.2063 9.17729 19.3101 9.19482 19.411C9.21234 19.5119 9.2688 19.6019 9.35204 19.6616L10.5036 20.4573L10.4712 20.5038C10.4003 20.6067 10.3097 20.6946 10.2046 20.7623C10.0995 20.83 9.98211 20.8763 9.85908 20.8984ZM14.7525 14.306L10.3466 14.1849L12.5509 10.9931L15.5904 13.0927L14.7525 14.306ZM17.426 12.7978C17.3498 12.9081 17.2329 12.9836 17.1011 13.0077C16.9692 13.0318 16.8332 13.0025 16.7229 12.9263L12.3048 9.87392C12.2228 9.8172 12.1595 9.73746 12.1227 9.64477C12.086 9.55208 12.0776 9.45058 12.0985 9.35309C12.1194 9.2556 12.1687 9.16648 12.2401 9.09698C12.3116 9.02748 12.4021 8.98071 12.5001 8.96258C12.5304 8.95713 12.5612 8.95439 12.5919 8.95437C12.694 8.95429 12.7937 8.98551 12.8775 9.04383L16.1916 11.3329L17.2963 12.0962C17.4064 12.1722 17.4819 12.2887 17.5062 12.4202C17.5306 12.5517 17.5017 12.6875 17.426 12.7978Z" fill="#12B880"/>
<path d="M23.0394 16.817V15.9787C23.3511 15.9787 23.6499 15.8549 23.8703 15.6346C24.0906 15.4142 24.2144 15.1153 24.2144 14.8037C24.2144 14.4921 24.0906 14.1932 23.8703 13.9728C23.6499 13.7525 23.3511 13.6287 23.0394 13.6287H19.903C19.5914 13.6287 19.2925 13.7525 19.0722 13.9728C18.8518 14.1932 18.728 14.4921 18.728 14.8037C18.728 15.1153 18.8518 15.4142 19.0722 15.6346C19.2925 15.8549 19.5914 15.9787 19.903 15.9787V16.817C19.3337 17.0022 18.8375 17.3626 18.4854 17.8466C18.1332 18.3307 17.943 18.9137 17.9421 19.5124V23.4328C17.9426 23.8485 18.1081 24.2471 18.4022 24.5409C18.6963 24.8348 19.0951 24.9999 19.5108 25H23.4332C23.8487 24.9995 24.247 24.8342 24.5408 24.5404C24.8346 24.2466 24.9999 23.8483 25.0004 23.4328V19.5104C24.999 18.9121 24.8087 18.3295 24.4565 17.8458C24.1044 17.3622 23.6084 17.0021 23.0394 16.817ZM19.5093 14.8045C19.5094 14.7001 19.5509 14.6 19.6247 14.5262C19.6985 14.4523 19.7986 14.4108 19.903 14.4107H23.041C23.1454 14.4107 23.2456 14.4522 23.3194 14.5261C23.3933 14.5999 23.4347 14.7001 23.4347 14.8045C23.4347 14.9089 23.3933 15.0091 23.3194 15.0829C23.2456 15.1568 23.1454 15.1982 23.041 15.1982H19.903C19.7986 15.1981 19.6985 15.1566 19.6247 15.0828C19.5509 15.009 19.5094 14.9089 19.5093 14.8045ZM24.2191 23.4328C24.2188 23.6411 24.1359 23.8409 23.9886 23.9882C23.8413 24.1355 23.6415 24.2184 23.4332 24.2187H19.5108C19.3024 24.2185 19.1027 24.1356 18.9553 23.9883C18.808 23.841 18.7251 23.6412 18.7249 23.4328V19.5104C18.7255 19.0368 18.8898 18.5779 19.1899 18.2115C19.49 17.8451 19.9075 17.5937 20.3718 17.4998C20.4601 17.4818 20.5394 17.4338 20.5964 17.364C20.6533 17.2941 20.6844 17.2068 20.6843 17.1166V15.9787H22.2582V17.1182C22.258 17.2083 22.2891 17.2957 22.3461 17.3655C22.403 17.4354 22.4824 17.4834 22.5707 17.5014C23.0349 17.5949 23.4526 17.846 23.753 18.2121C24.0534 18.5782 24.2181 19.0369 24.2191 19.5104V23.4328Z" fill="#12B880"/>
<path d="M22.6488 20.4925H21.8624V19.7065C21.8624 19.6029 21.8213 19.5036 21.748 19.4303C21.6748 19.3571 21.5754 19.3159 21.4718 19.3159C21.3682 19.3159 21.2688 19.3571 21.1956 19.4303C21.1223 19.5036 21.0812 19.6029 21.0812 19.7065V20.4925H20.2952C20.1916 20.4925 20.0923 20.5336 20.019 20.6069C19.9457 20.6802 19.9046 20.7795 19.9046 20.8831C19.9046 20.9867 19.9457 21.0861 20.019 21.1593C20.0923 21.2326 20.1916 21.2738 20.2952 21.2738H21.0812V22.0601C21.0812 22.1637 21.1223 22.2631 21.1956 22.3363C21.2688 22.4096 21.3682 22.4507 21.4718 22.4507C21.5754 22.4507 21.6748 22.4096 21.748 22.3363C21.8213 22.2631 21.8624 22.1637 21.8624 22.0601V21.2738H22.6488C22.7524 21.2738 22.8517 21.2326 22.925 21.1593C22.9983 21.0861 23.0394 20.9867 23.0394 20.8831C23.0394 20.7795 22.9983 20.6802 22.925 20.6069C22.8517 20.5336 22.7524 20.4925 22.6488 20.4925Z" fill="#12B880"/>
</g>
<defs>
<clipPath id="clip0_1_137">
<rect width="20.0004" height="20" fill="white" transform="translate(5 5)"/>
</clipPath>
</defs>
</svg>
